<mxfile host="Electron" agent="Mozilla/5.0 (X11; Linux x86_64) AppleWebKit/537.36 (KHTML, like Gecko) draw.io/24.7.17 Chrome/128.0.6613.186 Electron/32.2.5 Safari/537.36" version="24.7.17">
  <diagram name="Page-1" id="9f46799a-70d6-7492-0946-bef42562c5a5">
    <mxGraphModel dx="1280" dy="1962" grid="0" gridSize="10" guides="1" tooltips="1" connect="1" arrows="1" fold="1" page="0" pageScale="1" pageWidth="1100" pageHeight="850" background="#1E1F1C" math="0" shadow="0">
      <root>
        <mxCell id="0" />
        <mxCell id="1" parent="0" />
        <mxCell id="LZu-NjYtR17rz2Tp9sWo-2" value="UIManager" style="swimlane;fontStyle=0;childLayout=stackLayout;horizontal=1;startSize=30;horizontalStack=0;resizeParent=1;resizeParentMax=0;resizeLast=0;collapsible=1;marginBottom=0;whiteSpace=wrap;html=1;rounded=1;shadow=0;strokeWidth=2;direction=east;labelBackgroundColor=none;fillColor=#BC6C25;strokeColor=#DDA15E;fontColor=#FEFAE0;" parent="1" vertex="1">
          <mxGeometry x="395" y="90" width="210" height="120" as="geometry">
            <mxRectangle x="310" y="380" width="100" height="30" as="alternateBounds" />
          </mxGeometry>
        </mxCell>
        <mxCell id="LZu-NjYtR17rz2Tp9sWo-3" value="&lt;div&gt;void Open&lt;span style=&quot;background-color: initial;&quot;&gt;Page(Page page)&lt;/span&gt;&lt;/div&gt;" style="text;strokeColor=none;fillColor=none;align=left;verticalAlign=middle;spacingLeft=4;spacingRight=4;overflow=hidden;points=[[0,0.5],[1,0.5]];portConstraint=eastwest;rotatable=0;whiteSpace=wrap;html=1;rounded=1;labelBackgroundColor=none;fontColor=#FEFAE0;" parent="LZu-NjYtR17rz2Tp9sWo-2" vertex="1">
          <mxGeometry y="30" width="210" height="30" as="geometry" />
        </mxCell>
        <mxCell id="8EAAMGY7SLUVXrKPHWDD-4" value="void ClosePage()" style="text;strokeColor=none;fillColor=none;align=left;verticalAlign=middle;spacingLeft=4;spacingRight=4;overflow=hidden;points=[[0,0.5],[1,0.5]];portConstraint=eastwest;rotatable=0;whiteSpace=wrap;html=1;rounded=1;labelBackgroundColor=none;fontColor=#FEFAE0;" parent="LZu-NjYtR17rz2Tp9sWo-2" vertex="1">
          <mxGeometry y="60" width="210" height="30" as="geometry" />
        </mxCell>
        <mxCell id="8EAAMGY7SLUVXrKPHWDD-11" value="Page GetCurrentPage()" style="text;strokeColor=none;fillColor=none;align=left;verticalAlign=middle;spacingLeft=4;spacingRight=4;overflow=hidden;points=[[0,0.5],[1,0.5]];portConstraint=eastwest;rotatable=0;whiteSpace=wrap;html=1;rounded=1;labelBackgroundColor=none;fontColor=#FEFAE0;" parent="LZu-NjYtR17rz2Tp9sWo-2" vertex="1">
          <mxGeometry y="90" width="210" height="30" as="geometry" />
        </mxCell>
        <mxCell id="8EAAMGY7SLUVXrKPHWDD-7" value="Page" style="swimlane;fontStyle=0;childLayout=stackLayout;horizontal=1;startSize=26;fillColor=none;horizontalStack=0;resizeParent=1;resizeParentMax=0;resizeLast=0;collapsible=1;marginBottom=0;whiteSpace=wrap;html=1;rounded=1;labelBackgroundColor=none;strokeColor=#DDA15E;fontColor=#FEFAE0;" parent="1" vertex="1">
          <mxGeometry x="430" y="280" width="140" height="78" as="geometry" />
        </mxCell>
        <mxCell id="8EAAMGY7SLUVXrKPHWDD-8" value="&lt;div&gt;void Show()&lt;/div&gt;" style="text;strokeColor=none;fillColor=none;align=left;verticalAlign=top;spacingLeft=4;spacingRight=4;overflow=hidden;rotatable=0;points=[[0,0.5],[1,0.5]];portConstraint=eastwest;whiteSpace=wrap;html=1;rounded=1;labelBackgroundColor=none;fontColor=#FEFAE0;" parent="8EAAMGY7SLUVXrKPHWDD-7" vertex="1">
          <mxGeometry y="26" width="140" height="26" as="geometry" />
        </mxCell>
        <mxCell id="8EAAMGY7SLUVXrKPHWDD-9" value="void Hide()" style="text;strokeColor=none;fillColor=none;align=left;verticalAlign=top;spacingLeft=4;spacingRight=4;overflow=hidden;rotatable=0;points=[[0,0.5],[1,0.5]];portConstraint=eastwest;whiteSpace=wrap;html=1;rounded=1;labelBackgroundColor=none;fontColor=#FEFAE0;" parent="8EAAMGY7SLUVXrKPHWDD-7" vertex="1">
          <mxGeometry y="52" width="140" height="26" as="geometry" />
        </mxCell>
        <mxCell id="8EAAMGY7SLUVXrKPHWDD-12" value="InputManager" style="swimlane;fontStyle=0;childLayout=stackLayout;horizontal=1;startSize=26;fillColor=none;horizontalStack=0;resizeParent=1;resizeParentMax=0;resizeLast=0;collapsible=1;marginBottom=0;whiteSpace=wrap;html=1;rounded=1;labelBackgroundColor=none;strokeColor=#DDA15E;fontColor=#FEFAE0;" parent="1" vertex="1">
          <mxGeometry x="1066" y="-815" width="240" height="156" as="geometry" />
        </mxCell>
        <mxCell id="8EAAMGY7SLUVXrKPHWDD-13" value="Action&lt;span style=&quot;background-color: initial;&quot;&gt;&amp;nbsp;O&lt;/span&gt;&lt;span style=&quot;background-color: initial;&quot;&gt;nInventory&lt;/span&gt;" style="text;strokeColor=none;fillColor=none;align=left;verticalAlign=top;spacingLeft=4;spacingRight=4;overflow=hidden;rotatable=0;points=[[0,0.5],[1,0.5]];portConstraint=eastwest;whiteSpace=wrap;html=1;rounded=1;labelBackgroundColor=none;fontColor=#FEFAE0;" parent="8EAAMGY7SLUVXrKPHWDD-12" vertex="1">
          <mxGeometry y="26" width="240" height="26" as="geometry" />
        </mxCell>
        <mxCell id="8EAAMGY7SLUVXrKPHWDD-14" value="Action&amp;lt;(float x, float y)&amp;gt; OnMove" style="text;strokeColor=none;fillColor=none;align=left;verticalAlign=top;spacingLeft=4;spacingRight=4;overflow=hidden;rotatable=0;points=[[0,0.5],[1,0.5]];portConstraint=eastwest;whiteSpace=wrap;html=1;rounded=1;labelBackgroundColor=none;fontColor=#FEFAE0;" parent="8EAAMGY7SLUVXrKPHWDD-12" vertex="1">
          <mxGeometry y="52" width="240" height="26" as="geometry" />
        </mxCell>
        <mxCell id="8EAAMGY7SLUVXrKPHWDD-15" value="Action OnJump" style="text;strokeColor=none;fillColor=none;align=left;verticalAlign=top;spacingLeft=4;spacingRight=4;overflow=hidden;rotatable=0;points=[[0,0.5],[1,0.5]];portConstraint=eastwest;whiteSpace=wrap;html=1;rounded=1;labelBackgroundColor=none;fontColor=#FEFAE0;" parent="8EAAMGY7SLUVXrKPHWDD-12" vertex="1">
          <mxGeometry y="78" width="240" height="26" as="geometry" />
        </mxCell>
        <mxCell id="8EAAMGY7SLUVXrKPHWDD-16" value="Action&amp;lt;(float x, float y)&amp;gt; OnCameraMove" style="text;strokeColor=none;fillColor=none;align=left;verticalAlign=top;spacingLeft=4;spacingRight=4;overflow=hidden;rotatable=0;points=[[0,0.5],[1,0.5]];portConstraint=eastwest;whiteSpace=wrap;html=1;rounded=1;labelBackgroundColor=none;fontColor=#FEFAE0;" parent="8EAAMGY7SLUVXrKPHWDD-12" vertex="1">
          <mxGeometry y="104" width="240" height="26" as="geometry" />
        </mxCell>
        <mxCell id="8EAAMGY7SLUVXrKPHWDD-50" value="Action OnUse" style="text;strokeColor=none;fillColor=none;align=left;verticalAlign=top;spacingLeft=4;spacingRight=4;overflow=hidden;rotatable=0;points=[[0,0.5],[1,0.5]];portConstraint=eastwest;whiteSpace=wrap;html=1;rounded=1;labelBackgroundColor=none;fontColor=#FEFAE0;" parent="8EAAMGY7SLUVXrKPHWDD-12" vertex="1">
          <mxGeometry y="130" width="240" height="26" as="geometry" />
        </mxCell>
        <mxCell id="8EAAMGY7SLUVXrKPHWDD-21" value="PlayerInventoryPage" style="swimlane;fontStyle=0;childLayout=stackLayout;horizontal=1;startSize=26;fillColor=none;horizontalStack=0;resizeParent=1;resizeParentMax=0;resizeLast=0;collapsible=1;marginBottom=0;whiteSpace=wrap;html=1;rounded=1;labelBackgroundColor=none;strokeColor=#DDA15E;fontColor=#FEFAE0;" parent="1" vertex="1">
          <mxGeometry x="580" y="490" width="200" height="52" as="geometry" />
        </mxCell>
        <mxCell id="8EAAMGY7SLUVXrKPHWDD-23" value="PlayerInventory Player&lt;span style=&quot;background-color: initial;&quot;&gt;Inventory&lt;/span&gt;" style="text;strokeColor=none;fillColor=none;align=left;verticalAlign=top;spacingLeft=4;spacingRight=4;overflow=hidden;rotatable=0;points=[[0,0.5],[1,0.5]];portConstraint=eastwest;whiteSpace=wrap;html=1;rounded=1;labelBackgroundColor=none;fontColor=#FEFAE0;" parent="8EAAMGY7SLUVXrKPHWDD-21" vertex="1">
          <mxGeometry y="26" width="200" height="26" as="geometry" />
        </mxCell>
        <mxCell id="8EAAMGY7SLUVXrKPHWDD-31" value="Player" style="swimlane;fontStyle=0;childLayout=stackLayout;horizontal=1;startSize=26;fillColor=none;horizontalStack=0;resizeParent=1;resizeParentMax=0;resizeLast=0;collapsible=1;marginBottom=0;whiteSpace=wrap;html=1;rounded=1;labelBackgroundColor=none;strokeColor=#DDA15E;fontColor=#FEFAE0;" parent="1" vertex="1">
          <mxGeometry x="1000" y="10" width="320" height="208" as="geometry" />
        </mxCell>
        <mxCell id="8EAAMGY7SLUVXrKPHWDD-32" value="string Username" style="text;strokeColor=none;fillColor=none;align=left;verticalAlign=top;spacingLeft=4;spacingRight=4;overflow=hidden;rotatable=0;points=[[0,0.5],[1,0.5]];portConstraint=eastwest;whiteSpace=wrap;html=1;rounded=1;labelBackgroundColor=none;fontColor=#FEFAE0;" parent="8EAAMGY7SLUVXrKPHWDD-31" vertex="1">
          <mxGeometry y="26" width="320" height="26" as="geometry" />
        </mxCell>
        <mxCell id="ZEL4j_P76lbgU2SCLUvC-63" value="PlayerAnimationManager&amp;nbsp;&lt;span style=&quot;background-color: initial;&quot;&gt;AnimationManager&lt;/span&gt;" style="text;strokeColor=none;fillColor=none;align=left;verticalAlign=top;spacingLeft=4;spacingRight=4;overflow=hidden;rotatable=0;points=[[0,0.5],[1,0.5]];portConstraint=eastwest;whiteSpace=wrap;html=1;rounded=1;labelBackgroundColor=none;fontColor=#FEFAE0;" parent="8EAAMGY7SLUVXrKPHWDD-31" vertex="1">
          <mxGeometry y="52" width="320" height="26" as="geometry" />
        </mxCell>
        <mxCell id="ZEL4j_P76lbgU2SCLUvC-68" value="PlayerMovementManager MovementManager" style="text;strokeColor=none;fillColor=none;align=left;verticalAlign=top;spacingLeft=4;spacingRight=4;overflow=hidden;rotatable=0;points=[[0,0.5],[1,0.5]];portConstraint=eastwest;whiteSpace=wrap;html=1;rounded=1;labelBackgroundColor=none;fontColor=#FEFAE0;" parent="8EAAMGY7SLUVXrKPHWDD-31" vertex="1">
          <mxGeometry y="78" width="320" height="26" as="geometry" />
        </mxCell>
        <mxCell id="ZEL4j_P76lbgU2SCLUvC-64" value="PlayerInteractingManager InteractingManager" style="text;strokeColor=none;fillColor=none;align=left;verticalAlign=top;spacingLeft=4;spacingRight=4;overflow=hidden;rotatable=0;points=[[0,0.5],[1,0.5]];portConstraint=eastwest;whiteSpace=wrap;html=1;rounded=1;labelBackgroundColor=none;fontColor=#FEFAE0;" parent="8EAAMGY7SLUVXrKPHWDD-31" vertex="1">
          <mxGeometry y="104" width="320" height="26" as="geometry" />
        </mxCell>
        <mxCell id="ZEL4j_P76lbgU2SCLUvC-73" value="PlayerInventoryManager InventoryManager" style="text;strokeColor=none;fillColor=none;align=left;verticalAlign=top;spacingLeft=4;spacingRight=4;overflow=hidden;rotatable=0;points=[[0,0.5],[1,0.5]];portConstraint=eastwest;whiteSpace=wrap;html=1;rounded=1;labelBackgroundColor=none;fontColor=#FEFAE0;" parent="8EAAMGY7SLUVXrKPHWDD-31" vertex="1">
          <mxGeometry y="130" width="320" height="26" as="geometry" />
        </mxCell>
        <mxCell id="HC6vs06m10PFqQaXT6nF-10" value="PlayerStatsManager StatsManager" style="text;strokeColor=none;fillColor=none;align=left;verticalAlign=top;spacingLeft=4;spacingRight=4;overflow=hidden;rotatable=0;points=[[0,0.5],[1,0.5]];portConstraint=eastwest;whiteSpace=wrap;html=1;rounded=1;labelBackgroundColor=none;fontColor=#FEFAE0;" parent="8EAAMGY7SLUVXrKPHWDD-31" vertex="1">
          <mxGeometry y="156" width="320" height="26" as="geometry" />
        </mxCell>
        <mxCell id="HC6vs06m10PFqQaXT6nF-11" value="PlayerQuestManager QuestManager" style="text;strokeColor=none;fillColor=none;align=left;verticalAlign=top;spacingLeft=4;spacingRight=4;overflow=hidden;rotatable=0;points=[[0,0.5],[1,0.5]];portConstraint=eastwest;whiteSpace=wrap;html=1;rounded=1;labelBackgroundColor=none;fontColor=#FEFAE0;" parent="8EAAMGY7SLUVXrKPHWDD-31" vertex="1">
          <mxGeometry y="182" width="320" height="26" as="geometry" />
        </mxCell>
        <mxCell id="8EAAMGY7SLUVXrKPHWDD-37" value="Player&lt;span style=&quot;background-color: initial;&quot;&gt;AnimationManager&lt;/span&gt;" style="swimlane;fontStyle=0;childLayout=stackLayout;horizontal=1;startSize=26;fillColor=none;horizontalStack=0;resizeParent=1;resizeParentMax=0;resizeLast=0;collapsible=1;marginBottom=0;whiteSpace=wrap;html=1;rounded=1;labelBackgroundColor=none;strokeColor=#DDA15E;fontColor=#FEFAE0;" parent="1" vertex="1">
          <mxGeometry x="1370" y="-52" width="250" height="78" as="geometry" />
        </mxCell>
        <mxCell id="8EAAMGY7SLUVXrKPHWDD-38" value="void SetState(PlayerAnimationState state)" style="text;strokeColor=none;fillColor=none;align=left;verticalAlign=top;spacingLeft=4;spacingRight=4;overflow=hidden;rotatable=0;points=[[0,0.5],[1,0.5]];portConstraint=eastwest;whiteSpace=wrap;html=1;rounded=1;labelBackgroundColor=none;fontColor=#FEFAE0;" parent="8EAAMGY7SLUVXrKPHWDD-37" vertex="1">
          <mxGeometry y="26" width="250" height="26" as="geometry" />
        </mxCell>
        <mxCell id="PxFXx7_cM0NpvS31mXZh-82" value="void Play(Animation animation)" style="text;strokeColor=none;fillColor=none;align=left;verticalAlign=top;spacingLeft=4;spacingRight=4;overflow=hidden;rotatable=0;points=[[0,0.5],[1,0.5]];portConstraint=eastwest;whiteSpace=wrap;html=1;rounded=1;labelBackgroundColor=none;fontColor=#FEFAE0;" parent="8EAAMGY7SLUVXrKPHWDD-37" vertex="1">
          <mxGeometry y="52" width="250" height="26" as="geometry" />
        </mxCell>
        <mxCell id="8EAAMGY7SLUVXrKPHWDD-41" value="PlayerInventoryManager: ISaveable" style="swimlane;fontStyle=0;childLayout=stackLayout;horizontal=1;startSize=26;fillColor=none;horizontalStack=0;resizeParent=1;resizeParentMax=0;resizeLast=0;collapsible=1;marginBottom=0;whiteSpace=wrap;html=1;rounded=1;labelBackgroundColor=none;glass=0;strokeColor=#DDA15E;fontColor=#FEFAE0;" parent="1" vertex="1">
          <mxGeometry x="870" y="477" width="250" height="78" as="geometry" />
        </mxCell>
        <mxCell id="8EAAMGY7SLUVXrKPHWDD-43" value="void OpenInventoryPage()" style="text;strokeColor=none;fillColor=none;align=left;verticalAlign=top;spacingLeft=4;spacingRight=4;overflow=hidden;rotatable=0;points=[[0,0.5],[1,0.5]];portConstraint=eastwest;whiteSpace=wrap;html=1;rounded=1;labelBackgroundColor=none;fontColor=#FEFAE0;" parent="8EAAMGY7SLUVXrKPHWDD-41" vertex="1">
          <mxGeometry y="26" width="250" height="26" as="geometry" />
        </mxCell>
        <mxCell id="ZEL4j_P76lbgU2SCLUvC-53" value="PlayerInventory Inventory" style="text;strokeColor=none;fillColor=none;align=left;verticalAlign=top;spacingLeft=4;spacingRight=4;overflow=hidden;rotatable=0;points=[[0,0.5],[1,0.5]];portConstraint=eastwest;whiteSpace=wrap;html=1;rounded=1;labelBackgroundColor=none;fontColor=#FEFAE0;" parent="8EAAMGY7SLUVXrKPHWDD-41" vertex="1">
          <mxGeometry y="52" width="250" height="26" as="geometry" />
        </mxCell>
        <mxCell id="8EAAMGY7SLUVXrKPHWDD-55" value="Inventory" style="swimlane;fontStyle=0;childLayout=stackLayout;horizontal=1;startSize=26;fillColor=none;horizontalStack=0;resizeParent=1;resizeParentMax=0;resizeLast=0;collapsible=1;marginBottom=0;whiteSpace=wrap;html=1;rounded=1;labelBackgroundColor=none;strokeColor=#DDA15E;fontColor=#FEFAE0;" parent="1" vertex="1">
          <mxGeometry x="700" y="838" width="200" height="104" as="geometry" />
        </mxCell>
        <mxCell id="8EAAMGY7SLUVXrKPHWDD-56" value="readonly Item[] Items" style="text;strokeColor=none;fillColor=none;align=left;verticalAlign=top;spacingLeft=4;spacingRight=4;overflow=hidden;rotatable=0;points=[[0,0.5],[1,0.5]];portConstraint=eastwest;whiteSpace=wrap;html=1;rounded=1;labelBackgroundColor=none;fontColor=#FEFAE0;" parent="8EAAMGY7SLUVXrKPHWDD-55" vertex="1">
          <mxGeometry y="26" width="200" height="26" as="geometry" />
        </mxCell>
        <mxCell id="8EAAMGY7SLUVXrKPHWDD-57" value="Item AddItem(Item item)" style="text;strokeColor=none;fillColor=none;align=left;verticalAlign=top;spacingLeft=4;spacingRight=4;overflow=hidden;rotatable=0;points=[[0,0.5],[1,0.5]];portConstraint=eastwest;whiteSpace=wrap;html=1;rounded=1;labelBackgroundColor=none;fontColor=#FEFAE0;" parent="8EAAMGY7SLUVXrKPHWDD-55" vertex="1">
          <mxGeometry y="52" width="200" height="26" as="geometry" />
        </mxCell>
        <mxCell id="8EAAMGY7SLUVXrKPHWDD-58" value="Item GetItem(string id, int count)" style="text;strokeColor=none;fillColor=none;align=left;verticalAlign=top;spacingLeft=4;spacingRight=4;overflow=hidden;rotatable=0;points=[[0,0.5],[1,0.5]];portConstraint=eastwest;whiteSpace=wrap;html=1;rounded=1;labelBackgroundColor=none;fontColor=#FEFAE0;" parent="8EAAMGY7SLUVXrKPHWDD-55" vertex="1">
          <mxGeometry y="78" width="200" height="26" as="geometry" />
        </mxCell>
        <mxCell id="8EAAMGY7SLUVXrKPHWDD-66" value="PlayerMovementManager" style="swimlane;fontStyle=0;childLayout=stackLayout;horizontal=1;startSize=26;fillColor=none;horizontalStack=0;resizeParent=1;resizeParentMax=0;resizeLast=0;collapsible=1;marginBottom=0;whiteSpace=wrap;html=1;rounded=1;labelBackgroundColor=none;strokeColor=#DDA15E;fontColor=#FEFAE0;" parent="1" vertex="1">
          <mxGeometry x="1380" y="200" width="210" height="104" as="geometry" />
        </mxCell>
        <mxCell id="8EAAMGY7SLUVXrKPHWDD-69" value="void Move(float x, float y)" style="text;strokeColor=none;fillColor=none;align=left;verticalAlign=top;spacingLeft=4;spacingRight=4;overflow=hidden;rotatable=0;points=[[0,0.5],[1,0.5]];portConstraint=eastwest;whiteSpace=wrap;html=1;rounded=1;labelBackgroundColor=none;fontColor=#FEFAE0;" parent="8EAAMGY7SLUVXrKPHWDD-66" vertex="1">
          <mxGeometry y="26" width="210" height="26" as="geometry" />
        </mxCell>
        <mxCell id="ZEL4j_P76lbgU2SCLUvC-21" value="void MoveCamera(float x, float y)" style="text;strokeColor=none;fillColor=none;align=left;verticalAlign=top;spacingLeft=4;spacingRight=4;overflow=hidden;rotatable=0;points=[[0,0.5],[1,0.5]];portConstraint=eastwest;whiteSpace=wrap;html=1;rounded=1;labelBackgroundColor=none;fontColor=#FEFAE0;" parent="8EAAMGY7SLUVXrKPHWDD-66" vertex="1">
          <mxGeometry y="52" width="210" height="26" as="geometry" />
        </mxCell>
        <mxCell id="ZEL4j_P76lbgU2SCLUvC-22" value="void Jump()" style="text;strokeColor=none;fillColor=none;align=left;verticalAlign=top;spacingLeft=4;spacingRight=4;overflow=hidden;rotatable=0;points=[[0,0.5],[1,0.5]];portConstraint=eastwest;whiteSpace=wrap;html=1;rounded=1;labelBackgroundColor=none;fontColor=#FEFAE0;" parent="8EAAMGY7SLUVXrKPHWDD-66" vertex="1">
          <mxGeometry y="78" width="210" height="26" as="geometry" />
        </mxCell>
        <mxCell id="8EAAMGY7SLUVXrKPHWDD-71" value="ShopPage" style="swimlane;fontStyle=0;childLayout=stackLayout;horizontal=1;startSize=26;fillColor=none;horizontalStack=0;resizeParent=1;resizeParentMax=0;resizeLast=0;collapsible=1;marginBottom=0;whiteSpace=wrap;html=1;rounded=1;labelBackgroundColor=none;strokeColor=#DDA15E;fontColor=#FEFAE0;" parent="1" vertex="1">
          <mxGeometry x="320" y="490" width="140" height="52" as="geometry" />
        </mxCell>
        <mxCell id="8EAAMGY7SLUVXrKPHWDD-72" value="Shop Shop" style="text;strokeColor=none;fillColor=none;align=left;verticalAlign=top;spacingLeft=4;spacingRight=4;overflow=hidden;rotatable=0;points=[[0,0.5],[1,0.5]];portConstraint=eastwest;whiteSpace=wrap;html=1;rounded=1;labelBackgroundColor=none;fontColor=#FEFAE0;" parent="8EAAMGY7SLUVXrKPHWDD-71" vertex="1">
          <mxGeometry y="26" width="140" height="26" as="geometry" />
        </mxCell>
        <mxCell id="8EAAMGY7SLUVXrKPHWDD-79" value="Extends" style="endArrow=block;endSize=16;endFill=0;html=1;rounded=1;labelBackgroundColor=none;fontColor=default;strokeColor=#DDA15E;" parent="1" source="8EAAMGY7SLUVXrKPHWDD-21" target="8EAAMGY7SLUVXrKPHWDD-7" edge="1">
          <mxGeometry width="160" relative="1" as="geometry">
            <mxPoint x="450" y="493" as="sourcePoint" />
            <mxPoint x="600" y="379" as="targetPoint" />
          </mxGeometry>
        </mxCell>
        <mxCell id="8EAAMGY7SLUVXrKPHWDD-81" value="Extends" style="endArrow=block;endSize=16;endFill=0;html=1;rounded=1;labelBackgroundColor=none;fontColor=default;strokeColor=#DDA15E;" parent="1" source="8EAAMGY7SLUVXrKPHWDD-71" target="8EAAMGY7SLUVXrKPHWDD-7" edge="1">
          <mxGeometry width="160" relative="1" as="geometry">
            <mxPoint x="630" y="500" as="sourcePoint" />
            <mxPoint x="555" y="435" as="targetPoint" />
          </mxGeometry>
        </mxCell>
        <mxCell id="8EAAMGY7SLUVXrKPHWDD-82" value="PlayerInventory" style="swimlane;fontStyle=0;childLayout=stackLayout;horizontal=1;startSize=26;fillColor=none;horizontalStack=0;resizeParent=1;resizeParentMax=0;resizeLast=0;collapsible=1;marginBottom=0;whiteSpace=wrap;html=1;rounded=1;labelBackgroundColor=none;strokeColor=#DDA15E;fontColor=#FEFAE0;" parent="1" vertex="1">
          <mxGeometry x="910" y="640" width="220" height="52" as="geometry" />
        </mxCell>
        <mxCell id="8EAAMGY7SLUVXrKPHWDD-83" value="Dictionary&amp;lt;Slot, Item&amp;gt; PlayerSlots" style="text;strokeColor=none;fillColor=none;align=left;verticalAlign=top;spacingLeft=4;spacingRight=4;overflow=hidden;rotatable=0;points=[[0,0.5],[1,0.5]];portConstraint=eastwest;whiteSpace=wrap;html=1;rounded=1;labelBackgroundColor=none;fontColor=#FEFAE0;" parent="8EAAMGY7SLUVXrKPHWDD-82" vertex="1">
          <mxGeometry y="26" width="220" height="26" as="geometry" />
        </mxCell>
        <mxCell id="8EAAMGY7SLUVXrKPHWDD-86" value="ShopInventory" style="swimlane;fontStyle=0;childLayout=stackLayout;horizontal=1;startSize=26;fillColor=none;horizontalStack=0;resizeParent=1;resizeParentMax=0;resizeLast=0;collapsible=1;marginBottom=0;whiteSpace=wrap;html=1;rounded=1;labelBackgroundColor=none;strokeColor=#DDA15E;fontColor=#FEFAE0;" parent="1" vertex="1">
          <mxGeometry x="600" y="710" width="140" height="52" as="geometry" />
        </mxCell>
        <mxCell id="8EAAMGY7SLUVXrKPHWDD-87" value="-" style="text;strokeColor=none;fillColor=none;align=left;verticalAlign=top;spacingLeft=4;spacingRight=4;overflow=hidden;rotatable=0;points=[[0,0.5],[1,0.5]];portConstraint=eastwest;whiteSpace=wrap;html=1;rounded=1;labelBackgroundColor=none;fontColor=#FEFAE0;" parent="8EAAMGY7SLUVXrKPHWDD-86" vertex="1">
          <mxGeometry y="26" width="140" height="26" as="geometry" />
        </mxCell>
        <mxCell id="8EAAMGY7SLUVXrKPHWDD-88" value="Extends" style="endArrow=block;endSize=16;endFill=0;html=1;rounded=1;labelBackgroundColor=none;fontColor=default;strokeColor=#DDA15E;" parent="1" source="8EAAMGY7SLUVXrKPHWDD-86" target="8EAAMGY7SLUVXrKPHWDD-55" edge="1">
          <mxGeometry width="160" relative="1" as="geometry">
            <mxPoint x="630" y="500" as="sourcePoint" />
            <mxPoint x="555" y="435" as="targetPoint" />
          </mxGeometry>
        </mxCell>
        <mxCell id="8EAAMGY7SLUVXrKPHWDD-89" value="Extends" style="endArrow=block;endSize=16;endFill=0;html=1;rounded=1;labelBackgroundColor=none;fontColor=default;strokeColor=#DDA15E;" parent="1" source="8EAAMGY7SLUVXrKPHWDD-82" target="8EAAMGY7SLUVXrKPHWDD-55" edge="1">
          <mxGeometry width="160" relative="1" as="geometry">
            <mxPoint x="640" y="510" as="sourcePoint" />
            <mxPoint x="565" y="445" as="targetPoint" />
          </mxGeometry>
        </mxCell>
        <mxCell id="8EAAMGY7SLUVXrKPHWDD-91" value="Shop" style="swimlane;fontStyle=0;childLayout=stackLayout;horizontal=1;startSize=26;fillColor=none;horizontalStack=0;resizeParent=1;resizeParentMax=0;resizeLast=0;collapsible=1;marginBottom=0;whiteSpace=wrap;html=1;rounded=1;labelBackgroundColor=none;strokeColor=#DDA15E;fontColor=#FEFAE0;" parent="1" vertex="1">
          <mxGeometry x="285" y="620" width="210" height="130" as="geometry" />
        </mxCell>
        <mxCell id="8EAAMGY7SLUVXrKPHWDD-92" value="ShopInventory ShopInventory" style="text;strokeColor=none;fillColor=none;align=left;verticalAlign=top;spacingLeft=4;spacingRight=4;overflow=hidden;rotatable=0;points=[[0,0.5],[1,0.5]];portConstraint=eastwest;whiteSpace=wrap;html=1;rounded=1;labelBackgroundColor=none;fontColor=#FEFAE0;" parent="8EAAMGY7SLUVXrKPHWDD-91" vertex="1">
          <mxGeometry y="26" width="210" height="26" as="geometry" />
        </mxCell>
        <mxCell id="8EAAMGY7SLUVXrKPHWDD-93" value="Item SellItem(Item item)" style="text;strokeColor=none;fillColor=none;align=left;verticalAlign=top;spacingLeft=4;spacingRight=4;overflow=hidden;rotatable=0;points=[[0,0.5],[1,0.5]];portConstraint=eastwest;whiteSpace=wrap;html=1;rounded=1;labelBackgroundColor=none;fontColor=#FEFAE0;" parent="8EAAMGY7SLUVXrKPHWDD-91" vertex="1">
          <mxGeometry y="52" width="210" height="26" as="geometry" />
        </mxCell>
        <mxCell id="8EAAMGY7SLUVXrKPHWDD-94" value="Item ByeItem(Item item)" style="text;strokeColor=none;fillColor=none;align=left;verticalAlign=top;spacingLeft=4;spacingRight=4;overflow=hidden;rotatable=0;points=[[0,0.5],[1,0.5]];portConstraint=eastwest;whiteSpace=wrap;html=1;rounded=1;labelBackgroundColor=none;fontColor=#FEFAE0;" parent="8EAAMGY7SLUVXrKPHWDD-91" vertex="1">
          <mxGeometry y="78" width="210" height="26" as="geometry" />
        </mxCell>
        <mxCell id="8EAAMGY7SLUVXrKPHWDD-97" value="Dictionary&amp;lt;Item, Item&amp;gt; PriceList" style="text;strokeColor=none;fillColor=none;align=left;verticalAlign=top;spacingLeft=4;spacingRight=4;overflow=hidden;rotatable=0;points=[[0,0.5],[1,0.5]];portConstraint=eastwest;whiteSpace=wrap;html=1;rounded=1;labelBackgroundColor=none;fontColor=#FEFAE0;" parent="8EAAMGY7SLUVXrKPHWDD-91" vertex="1">
          <mxGeometry y="104" width="210" height="26" as="geometry" />
        </mxCell>
        <mxCell id="8EAAMGY7SLUVXrKPHWDD-99" value="" style="endArrow=diamondThin;endFill=0;endSize=24;html=1;rounded=1;labelBackgroundColor=none;fontColor=default;strokeColor=#DDA15E;" parent="1" source="8EAAMGY7SLUVXrKPHWDD-7" target="LZu-NjYtR17rz2Tp9sWo-2" edge="1">
          <mxGeometry width="160" relative="1" as="geometry">
            <mxPoint x="340" y="330" as="sourcePoint" />
            <mxPoint x="340" y="370" as="targetPoint" />
          </mxGeometry>
        </mxCell>
        <mxCell id="8EAAMGY7SLUVXrKPHWDD-100" value="" style="endArrow=diamondThin;endFill=1;endSize=24;html=1;rounded=1;labelBackgroundColor=none;fontColor=default;strokeColor=#DDA15E;" parent="1" source="8EAAMGY7SLUVXrKPHWDD-91" target="8EAAMGY7SLUVXrKPHWDD-71" edge="1">
          <mxGeometry width="160" relative="1" as="geometry">
            <mxPoint x="220" y="560" as="sourcePoint" />
            <mxPoint x="380" y="560" as="targetPoint" />
          </mxGeometry>
        </mxCell>
        <mxCell id="8EAAMGY7SLUVXrKPHWDD-101" value="" style="endArrow=diamondThin;endFill=1;endSize=24;html=1;rounded=1;labelBackgroundColor=none;fontColor=default;strokeColor=#DDA15E;" parent="1" source="8EAAMGY7SLUVXrKPHWDD-82" target="8EAAMGY7SLUVXrKPHWDD-21" edge="1">
          <mxGeometry width="160" relative="1" as="geometry">
            <mxPoint x="670" y="610" as="sourcePoint" />
            <mxPoint x="830" y="610" as="targetPoint" />
          </mxGeometry>
        </mxCell>
        <mxCell id="8EAAMGY7SLUVXrKPHWDD-102" value="" style="endArrow=diamondThin;endFill=1;endSize=24;html=1;rounded=1;labelBackgroundColor=none;fontColor=default;strokeColor=#DDA15E;" parent="1" source="8EAAMGY7SLUVXrKPHWDD-82" target="8EAAMGY7SLUVXrKPHWDD-41" edge="1">
          <mxGeometry width="160" relative="1" as="geometry">
            <mxPoint x="950" y="540" as="sourcePoint" />
            <mxPoint x="1110" y="540" as="targetPoint" />
          </mxGeometry>
        </mxCell>
        <mxCell id="8EAAMGY7SLUVXrKPHWDD-103" value="" style="endArrow=diamondThin;endFill=1;endSize=24;html=1;rounded=1;labelBackgroundColor=none;fontColor=default;strokeColor=#DDA15E;" parent="1" source="8EAAMGY7SLUVXrKPHWDD-86" target="8EAAMGY7SLUVXrKPHWDD-91" edge="1">
          <mxGeometry width="160" relative="1" as="geometry">
            <mxPoint x="550" y="650" as="sourcePoint" />
            <mxPoint x="710" y="650" as="targetPoint" />
          </mxGeometry>
        </mxCell>
        <mxCell id="8EAAMGY7SLUVXrKPHWDD-104" value="" style="endArrow=diamondThin;endFill=0;endSize=24;html=1;rounded=1;labelBackgroundColor=none;fontColor=default;strokeColor=#DDA15E;" parent="1" source="8EAAMGY7SLUVXrKPHWDD-41" target="8EAAMGY7SLUVXrKPHWDD-91" edge="1">
          <mxGeometry width="160" relative="1" as="geometry">
            <mxPoint x="820" y="560" as="sourcePoint" />
            <mxPoint x="800" y="610" as="targetPoint" />
          </mxGeometry>
        </mxCell>
        <mxCell id="UVkhXcaQdOcwH5GgiyCx-1" value="Item" style="swimlane;fontStyle=0;childLayout=stackLayout;horizontal=1;startSize=26;fillColor=none;horizontalStack=0;resizeParent=1;resizeParentMax=0;resizeLast=0;collapsible=1;marginBottom=0;whiteSpace=wrap;html=1;rounded=1;labelBackgroundColor=none;strokeColor=#DDA15E;fontColor=#FEFAE0;" parent="1" vertex="1">
          <mxGeometry x="1010" y="771" width="180" height="260" as="geometry" />
        </mxCell>
        <mxCell id="UVkhXcaQdOcwH5GgiyCx-4" value="Item AddItem(Item other)" style="text;strokeColor=none;fillColor=none;align=left;verticalAlign=top;spacingLeft=4;spacingRight=4;overflow=hidden;rotatable=0;points=[[0,0.5],[1,0.5]];portConstraint=eastwest;whiteSpace=wrap;html=1;rounded=1;labelBackgroundColor=none;fontColor=#FEFAE0;" parent="UVkhXcaQdOcwH5GgiyCx-1" vertex="1">
          <mxGeometry y="26" width="180" height="26" as="geometry" />
        </mxCell>
        <mxCell id="uztSxXtXq5KVUmjGiAr7-3" value="Item AddCount(int count)" style="text;strokeColor=none;fillColor=none;align=left;verticalAlign=top;spacingLeft=4;spacingRight=4;overflow=hidden;rotatable=0;points=[[0,0.5],[1,0.5]];portConstraint=eastwest;whiteSpace=wrap;html=1;rounded=1;labelBackgroundColor=none;fontColor=#FEFAE0;" vertex="1" parent="UVkhXcaQdOcwH5GgiyCx-1">
          <mxGeometry y="52" width="180" height="26" as="geometry" />
        </mxCell>
        <mxCell id="UVkhXcaQdOcwH5GgiyCx-6" value="Item GetItem(Item other)" style="text;strokeColor=none;fillColor=none;align=left;verticalAlign=top;spacingLeft=4;spacingRight=4;overflow=hidden;rotatable=0;points=[[0,0.5],[1,0.5]];portConstraint=eastwest;whiteSpace=wrap;html=1;rounded=1;labelBackgroundColor=none;fontColor=#FEFAE0;" parent="UVkhXcaQdOcwH5GgiyCx-1" vertex="1">
          <mxGeometry y="78" width="180" height="26" as="geometry" />
        </mxCell>
        <mxCell id="uztSxXtXq5KVUmjGiAr7-4" value="Item GetCount(int count)" style="text;strokeColor=none;fillColor=none;align=left;verticalAlign=top;spacingLeft=4;spacingRight=4;overflow=hidden;rotatable=0;points=[[0,0.5],[1,0.5]];portConstraint=eastwest;whiteSpace=wrap;html=1;rounded=1;labelBackgroundColor=none;fontColor=#FEFAE0;" vertex="1" parent="UVkhXcaQdOcwH5GgiyCx-1">
          <mxGeometry y="104" width="180" height="26" as="geometry" />
        </mxCell>
        <mxCell id="uztSxXtXq5KVUmjGiAr7-2" value="bool IsStackable(Item other)" style="text;strokeColor=none;fillColor=none;align=left;verticalAlign=top;spacingLeft=4;spacingRight=4;overflow=hidden;rotatable=0;points=[[0,0.5],[1,0.5]];portConstraint=eastwest;whiteSpace=wrap;html=1;rounded=1;labelBackgroundColor=none;fontColor=#FEFAE0;" vertex="1" parent="UVkhXcaQdOcwH5GgiyCx-1">
          <mxGeometry y="130" width="180" height="26" as="geometry" />
        </mxCell>
        <mxCell id="UVkhXcaQdOcwH5GgiyCx-7" value="int Count" style="text;strokeColor=none;fillColor=none;align=left;verticalAlign=top;spacingLeft=4;spacingRight=4;overflow=hidden;rotatable=0;points=[[0,0.5],[1,0.5]];portConstraint=eastwest;whiteSpace=wrap;html=1;rounded=1;labelBackgroundColor=none;fontColor=#FEFAE0;" parent="UVkhXcaQdOcwH5GgiyCx-1" vertex="1">
          <mxGeometry y="156" width="180" height="26" as="geometry" />
        </mxCell>
        <mxCell id="UVkhXcaQdOcwH5GgiyCx-25" value="string Id" style="text;strokeColor=none;fillColor=none;align=left;verticalAlign=top;spacingLeft=4;spacingRight=4;overflow=hidden;rotatable=0;points=[[0,0.5],[1,0.5]];portConstraint=eastwest;whiteSpace=wrap;html=1;rounded=1;labelBackgroundColor=none;fontColor=#FEFAE0;" parent="UVkhXcaQdOcwH5GgiyCx-1" vertex="1">
          <mxGeometry y="182" width="180" height="26" as="geometry" />
        </mxCell>
        <mxCell id="UVkhXcaQdOcwH5GgiyCx-26" value="string Name" style="text;strokeColor=none;fillColor=none;align=left;verticalAlign=top;spacingLeft=4;spacingRight=4;overflow=hidden;rotatable=0;points=[[0,0.5],[1,0.5]];portConstraint=eastwest;whiteSpace=wrap;html=1;rounded=1;labelBackgroundColor=none;fontColor=#FEFAE0;" parent="UVkhXcaQdOcwH5GgiyCx-1" vertex="1">
          <mxGeometry y="208" width="180" height="26" as="geometry" />
        </mxCell>
        <mxCell id="UVkhXcaQdOcwH5GgiyCx-27" value="string Description" style="text;strokeColor=none;fillColor=none;align=left;verticalAlign=top;spacingLeft=4;spacingRight=4;overflow=hidden;rotatable=0;points=[[0,0.5],[1,0.5]];portConstraint=eastwest;whiteSpace=wrap;html=1;rounded=1;labelBackgroundColor=none;fontColor=#FEFAE0;" parent="UVkhXcaQdOcwH5GgiyCx-1" vertex="1">
          <mxGeometry y="234" width="180" height="26" as="geometry" />
        </mxCell>
        <mxCell id="UVkhXcaQdOcwH5GgiyCx-5" value="" style="endArrow=diamondThin;endFill=0;endSize=24;html=1;rounded=1;labelBackgroundColor=none;fontColor=default;strokeColor=#DDA15E;" parent="1" source="8EAAMGY7SLUVXrKPHWDD-55" target="UVkhXcaQdOcwH5GgiyCx-1" edge="1">
          <mxGeometry width="160" relative="1" as="geometry">
            <mxPoint x="890" y="1000" as="sourcePoint" />
            <mxPoint x="1050" y="1000" as="targetPoint" />
          </mxGeometry>
        </mxCell>
        <mxCell id="UVkhXcaQdOcwH5GgiyCx-18" value="IUsable" style="swimlane;fontStyle=0;childLayout=stackLayout;horizontal=1;startSize=26;fillColor=none;horizontalStack=0;resizeParent=1;resizeParentMax=0;resizeLast=0;collapsible=1;marginBottom=0;whiteSpace=wrap;html=1;rounded=1;labelBackgroundColor=none;strokeColor=#DDA15E;fontColor=#FEFAE0;" parent="1" vertex="1">
          <mxGeometry x="1203" y="1052" width="140" height="52" as="geometry" />
        </mxCell>
        <mxCell id="UVkhXcaQdOcwH5GgiyCx-20" value="void Use()&lt;div&gt;&lt;br&gt;&lt;/div&gt;" style="text;strokeColor=none;fillColor=none;align=left;verticalAlign=top;spacingLeft=4;spacingRight=4;overflow=hidden;rotatable=0;points=[[0,0.5],[1,0.5]];portConstraint=eastwest;whiteSpace=wrap;html=1;rounded=1;labelBackgroundColor=none;fontColor=#FEFAE0;" parent="UVkhXcaQdOcwH5GgiyCx-18" vertex="1">
          <mxGeometry y="26" width="140" height="26" as="geometry" />
        </mxCell>
        <mxCell id="UVkhXcaQdOcwH5GgiyCx-22" value="" style="endArrow=block;dashed=1;endFill=0;endSize=12;html=1;rounded=1;labelBackgroundColor=none;fontColor=default;strokeColor=#DDA15E;" parent="1" source="UVkhXcaQdOcwH5GgiyCx-18" target="UVkhXcaQdOcwH5GgiyCx-1" edge="1">
          <mxGeometry width="160" relative="1" as="geometry">
            <mxPoint x="1170" y="1020" as="sourcePoint" />
            <mxPoint x="1330" y="1020" as="targetPoint" />
          </mxGeometry>
        </mxCell>
        <mxCell id="UVkhXcaQdOcwH5GgiyCx-23" value="IEquipable" style="swimlane;fontStyle=0;childLayout=stackLayout;horizontal=1;startSize=26;fillColor=none;horizontalStack=0;resizeParent=1;resizeParentMax=0;resizeLast=0;collapsible=1;marginBottom=0;whiteSpace=wrap;html=1;rounded=1;labelBackgroundColor=none;strokeColor=#DDA15E;fontColor=#FEFAE0;" parent="1" vertex="1">
          <mxGeometry x="790" y="1031" width="170" height="104" as="geometry" />
        </mxCell>
        <mxCell id="UVkhXcaQdOcwH5GgiyCx-24" value="void Equip(Slot slot)&lt;div&gt;&lt;br&gt;&lt;/div&gt;" style="text;strokeColor=none;fillColor=none;align=left;verticalAlign=top;spacingLeft=4;spacingRight=4;overflow=hidden;rotatable=0;points=[[0,0.5],[1,0.5]];portConstraint=eastwest;whiteSpace=wrap;html=1;rounded=1;labelBackgroundColor=none;fontColor=#FEFAE0;" parent="UVkhXcaQdOcwH5GgiyCx-23" vertex="1">
          <mxGeometry y="26" width="170" height="26" as="geometry" />
        </mxCell>
        <mxCell id="ZEL4j_P76lbgU2SCLUvC-4" value="void Unequip()&lt;div&gt;&lt;br&gt;&lt;/div&gt;" style="text;strokeColor=none;fillColor=none;align=left;verticalAlign=top;spacingLeft=4;spacingRight=4;overflow=hidden;rotatable=0;points=[[0,0.5],[1,0.5]];portConstraint=eastwest;whiteSpace=wrap;html=1;rounded=1;labelBackgroundColor=none;fontColor=#FEFAE0;" parent="UVkhXcaQdOcwH5GgiyCx-23" vertex="1">
          <mxGeometry y="52" width="170" height="26" as="geometry" />
        </mxCell>
        <mxCell id="UVkhXcaQdOcwH5GgiyCx-28" value="Slot GetSlotsAvailable()" style="text;strokeColor=none;fillColor=none;align=left;verticalAlign=top;spacingLeft=4;spacingRight=4;overflow=hidden;rotatable=0;points=[[0,0.5],[1,0.5]];portConstraint=eastwest;whiteSpace=wrap;html=1;rounded=1;labelBackgroundColor=none;fontColor=#FEFAE0;" parent="UVkhXcaQdOcwH5GgiyCx-23" vertex="1">
          <mxGeometry y="78" width="170" height="26" as="geometry" />
        </mxCell>
        <mxCell id="UVkhXcaQdOcwH5GgiyCx-29" value="ITool" style="swimlane;fontStyle=0;childLayout=stackLayout;horizontal=1;startSize=26;fillColor=none;horizontalStack=0;resizeParent=1;resizeParentMax=0;resizeLast=0;collapsible=1;marginBottom=0;whiteSpace=wrap;html=1;rounded=1;labelBackgroundColor=none;strokeColor=#DDA15E;fontColor=#FEFAE0;" parent="1" vertex="1">
          <mxGeometry x="723" y="1204" width="137" height="52" as="geometry" />
        </mxCell>
        <mxCell id="UVkhXcaQdOcwH5GgiyCx-31" value="void Use()" style="text;strokeColor=none;fillColor=none;align=left;verticalAlign=top;spacingLeft=4;spacingRight=4;overflow=hidden;rotatable=0;points=[[0,0.5],[1,0.5]];portConstraint=eastwest;whiteSpace=wrap;html=1;rounded=1;labelBackgroundColor=none;fontColor=#FEFAE0;" parent="UVkhXcaQdOcwH5GgiyCx-29" vertex="1">
          <mxGeometry y="26" width="137" height="26" as="geometry" />
        </mxCell>
        <mxCell id="ZEL4j_P76lbgU2SCLUvC-1" value="" style="endArrow=block;dashed=1;endFill=0;endSize=12;html=1;rounded=1;labelBackgroundColor=none;fontColor=default;strokeColor=#DDA15E;" parent="1" source="UVkhXcaQdOcwH5GgiyCx-23" target="UVkhXcaQdOcwH5GgiyCx-1" edge="1">
          <mxGeometry width="160" relative="1" as="geometry">
            <mxPoint x="1315" y="822" as="sourcePoint" />
            <mxPoint x="1160" y="876" as="targetPoint" />
          </mxGeometry>
        </mxCell>
        <mxCell id="ZEL4j_P76lbgU2SCLUvC-2" value="" style="endArrow=block;dashed=1;endFill=0;endSize=12;html=1;rounded=1;labelBackgroundColor=none;fontColor=default;strokeColor=#DDA15E;" parent="1" source="UVkhXcaQdOcwH5GgiyCx-29" target="UVkhXcaQdOcwH5GgiyCx-23" edge="1">
          <mxGeometry width="160" relative="1" as="geometry">
            <mxPoint x="1300" y="899" as="sourcePoint" />
            <mxPoint x="1160" y="900" as="targetPoint" />
          </mxGeometry>
        </mxCell>
        <mxCell id="ZEL4j_P76lbgU2SCLUvC-5" value="ItemManager" style="swimlane;fontStyle=0;childLayout=stackLayout;horizontal=1;startSize=26;fillColor=none;horizontalStack=0;resizeParent=1;resizeParentMax=0;resizeLast=0;collapsible=1;marginBottom=0;whiteSpace=wrap;html=1;rounded=1;labelBackgroundColor=none;strokeColor=#DDA15E;fontColor=#FEFAE0;" parent="1" vertex="1">
          <mxGeometry x="1334" y="845" width="190" height="52" as="geometry" />
        </mxCell>
        <mxCell id="ZEL4j_P76lbgU2SCLUvC-7" value="Item GetById(string id, int count)" style="text;strokeColor=none;fillColor=none;align=left;verticalAlign=top;spacingLeft=4;spacingRight=4;overflow=hidden;rotatable=0;points=[[0,0.5],[1,0.5]];portConstraint=eastwest;whiteSpace=wrap;html=1;rounded=1;labelBackgroundColor=none;fontColor=#FEFAE0;" parent="ZEL4j_P76lbgU2SCLUvC-5" vertex="1">
          <mxGeometry y="26" width="190" height="26" as="geometry" />
        </mxCell>
        <mxCell id="ZEL4j_P76lbgU2SCLUvC-9" value="" style="endArrow=diamondThin;endFill=0;endSize=24;html=1;rounded=1;labelBackgroundColor=none;fontColor=default;strokeColor=#DDA15E;" parent="1" source="UVkhXcaQdOcwH5GgiyCx-1" target="ZEL4j_P76lbgU2SCLUvC-5" edge="1">
          <mxGeometry width="160" relative="1" as="geometry">
            <mxPoint x="1130" y="779" as="sourcePoint" />
            <mxPoint x="1164.5" y="710" as="targetPoint" />
          </mxGeometry>
        </mxCell>
        <mxCell id="ZEL4j_P76lbgU2SCLUvC-10" value="ItemShellManager" style="swimlane;fontStyle=0;childLayout=stackLayout;horizontal=1;startSize=26;fillColor=none;horizontalStack=0;resizeParent=1;resizeParentMax=0;resizeLast=0;collapsible=1;marginBottom=0;whiteSpace=wrap;html=1;rounded=1;labelBackgroundColor=none;strokeColor=#DDA15E;fontColor=#FEFAE0;" parent="1" vertex="1">
          <mxGeometry x="1450" y="685" width="421" height="52" as="geometry" />
        </mxCell>
        <mxCell id="ZEL4j_P76lbgU2SCLUvC-12" value="void SpawnItemShell(ItemShell shell, Vector3 position, Transform parent)" style="text;strokeColor=none;fillColor=none;align=left;verticalAlign=top;spacingLeft=4;spacingRight=4;overflow=hidden;rotatable=0;points=[[0,0.5],[1,0.5]];portConstraint=eastwest;whiteSpace=wrap;html=1;labelBackgroundColor=none;fontColor=#FEFAE0;rounded=1;" parent="ZEL4j_P76lbgU2SCLUvC-10" vertex="1">
          <mxGeometry y="26" width="421" height="26" as="geometry" />
        </mxCell>
        <mxCell id="ZEL4j_P76lbgU2SCLUvC-14" value="ItemShell" style="swimlane;fontStyle=0;childLayout=stackLayout;horizontal=1;startSize=26;fillColor=none;horizontalStack=0;resizeParent=1;resizeParentMax=0;resizeLast=0;collapsible=1;marginBottom=0;whiteSpace=wrap;html=1;rounded=1;labelBackgroundColor=none;strokeColor=#DDA15E;fontColor=#FEFAE0;" parent="1" vertex="1">
          <mxGeometry x="1214" y="685" width="140" height="52" as="geometry" />
        </mxCell>
        <mxCell id="ZEL4j_P76lbgU2SCLUvC-17" value="Item Item" style="text;strokeColor=none;fillColor=none;align=left;verticalAlign=top;spacingLeft=4;spacingRight=4;overflow=hidden;rotatable=0;points=[[0,0.5],[1,0.5]];portConstraint=eastwest;whiteSpace=wrap;html=1;labelBackgroundColor=none;fontColor=#FEFAE0;rounded=1;" parent="ZEL4j_P76lbgU2SCLUvC-14" vertex="1">
          <mxGeometry y="26" width="140" height="26" as="geometry" />
        </mxCell>
        <mxCell id="ZEL4j_P76lbgU2SCLUvC-19" value="" style="endArrow=diamondThin;endFill=1;endSize=24;html=1;rounded=1;labelBackgroundColor=none;fontColor=default;strokeColor=#DDA15E;" parent="1" source="UVkhXcaQdOcwH5GgiyCx-1" target="ZEL4j_P76lbgU2SCLUvC-14" edge="1">
          <mxGeometry width="160" relative="1" as="geometry">
            <mxPoint x="1030" y="740" as="sourcePoint" />
            <mxPoint x="1190" y="740" as="targetPoint" />
          </mxGeometry>
        </mxCell>
        <mxCell id="ZEL4j_P76lbgU2SCLUvC-20" value="" style="endArrow=diamondThin;endFill=0;endSize=24;html=1;rounded=1;labelBackgroundColor=none;fontColor=default;strokeColor=#DDA15E;" parent="1" source="ZEL4j_P76lbgU2SCLUvC-14" target="ZEL4j_P76lbgU2SCLUvC-10" edge="1">
          <mxGeometry width="160" relative="1" as="geometry">
            <mxPoint x="990" y="750" as="sourcePoint" />
            <mxPoint x="1150" y="750" as="targetPoint" />
          </mxGeometry>
        </mxCell>
        <mxCell id="ZEL4j_P76lbgU2SCLUvC-25" value="PlayerInteractingManager" style="swimlane;fontStyle=0;childLayout=stackLayout;horizontal=1;startSize=26;fillColor=none;horizontalStack=0;resizeParent=1;resizeParentMax=0;resizeLast=0;collapsible=1;marginBottom=0;whiteSpace=wrap;html=1;rounded=1;labelBackgroundColor=none;strokeColor=#DDA15E;fontColor=#FEFAE0;" parent="1" vertex="1">
          <mxGeometry x="1150" y="320" width="220" height="52" as="geometry" />
        </mxCell>
        <mxCell id="ZEL4j_P76lbgU2SCLUvC-28" value="-" style="text;strokeColor=none;fillColor=none;align=left;verticalAlign=top;spacingLeft=4;spacingRight=4;overflow=hidden;rotatable=0;points=[[0,0.5],[1,0.5]];portConstraint=eastwest;whiteSpace=wrap;html=1;labelBackgroundColor=none;fontColor=#FEFAE0;rounded=1;" parent="ZEL4j_P76lbgU2SCLUvC-25" vertex="1">
          <mxGeometry y="26" width="220" height="26" as="geometry" />
        </mxCell>
        <mxCell id="ZEL4j_P76lbgU2SCLUvC-30" value="PreferencesService: ISaveable" style="swimlane;fontStyle=0;childLayout=stackLayout;horizontal=1;startSize=26;fillColor=none;horizontalStack=0;resizeParent=1;resizeParentMax=0;resizeLast=0;collapsible=1;marginBottom=0;whiteSpace=wrap;html=1;rounded=1;labelBackgroundColor=none;strokeColor=#DDA15E;fontColor=#FEFAE0;" parent="1" vertex="1">
          <mxGeometry x="1383" y="-807" width="228" height="130" as="geometry" />
        </mxCell>
        <mxCell id="ZEL4j_P76lbgU2SCLUvC-33" value="float MasterVolume" style="text;strokeColor=none;fillColor=none;align=left;verticalAlign=top;spacingLeft=4;spacingRight=4;overflow=hidden;rotatable=0;points=[[0,0.5],[1,0.5]];portConstraint=eastwest;whiteSpace=wrap;html=1;labelBackgroundColor=none;fontColor=#FEFAE0;rounded=1;" parent="ZEL4j_P76lbgU2SCLUvC-30" vertex="1">
          <mxGeometry y="26" width="228" height="26" as="geometry" />
        </mxCell>
        <mxCell id="ZEL4j_P76lbgU2SCLUvC-34" value="float MusicVolume" style="text;strokeColor=none;fillColor=none;align=left;verticalAlign=top;spacingLeft=4;spacingRight=4;overflow=hidden;rotatable=0;points=[[0,0.5],[1,0.5]];portConstraint=eastwest;whiteSpace=wrap;html=1;labelBackgroundColor=none;fontColor=#FEFAE0;rounded=1;" parent="ZEL4j_P76lbgU2SCLUvC-30" vertex="1">
          <mxGeometry y="52" width="228" height="26" as="geometry" />
        </mxCell>
        <mxCell id="ZEL4j_P76lbgU2SCLUvC-35" value="float FXVolume" style="text;strokeColor=none;fillColor=none;align=left;verticalAlign=top;spacingLeft=4;spacingRight=4;overflow=hidden;rotatable=0;points=[[0,0.5],[1,0.5]];portConstraint=eastwest;whiteSpace=wrap;html=1;labelBackgroundColor=none;fontColor=#FEFAE0;rounded=1;" parent="ZEL4j_P76lbgU2SCLUvC-30" vertex="1">
          <mxGeometry y="78" width="228" height="26" as="geometry" />
        </mxCell>
        <mxCell id="ZEL4j_P76lbgU2SCLUvC-36" value="float Sencitivity" style="text;strokeColor=none;fillColor=none;align=left;verticalAlign=top;spacingLeft=4;spacingRight=4;overflow=hidden;rotatable=0;points=[[0,0.5],[1,0.5]];portConstraint=eastwest;whiteSpace=wrap;html=1;labelBackgroundColor=none;fontColor=#FEFAE0;rounded=1;" parent="ZEL4j_P76lbgU2SCLUvC-30" vertex="1">
          <mxGeometry y="104" width="228" height="26" as="geometry" />
        </mxCell>
        <mxCell id="ZEL4j_P76lbgU2SCLUvC-38" value="Use" style="endArrow=open;endSize=12;dashed=1;html=1;rounded=1;labelBackgroundColor=none;fontColor=default;strokeColor=#DDA15E;" parent="ZEL4j_P76lbgU2SCLUvC-30" target="ZEL4j_P76lbgU2SCLUvC-30" edge="1">
          <mxGeometry width="160" relative="1" as="geometry">
            <mxPoint x="119" y="227" as="sourcePoint" />
            <mxPoint x="-250" y="10" as="targetPoint" />
          </mxGeometry>
        </mxCell>
        <mxCell id="ZEL4j_P76lbgU2SCLUvC-37" value="Use" style="endArrow=open;endSize=12;dashed=1;html=1;rounded=1;labelBackgroundColor=none;fontColor=default;strokeColor=#DDA15E;" parent="1" target="8EAAMGY7SLUVXrKPHWDD-12" edge="1">
          <mxGeometry width="160" relative="1" as="geometry">
            <mxPoint x="1186" y="-575" as="sourcePoint" />
            <mxPoint x="1176" y="-695" as="targetPoint" />
          </mxGeometry>
        </mxCell>
        <mxCell id="ZEL4j_P76lbgU2SCLUvC-39" value="" style="endArrow=diamondThin;endFill=0;endSize=24;html=1;rounded=1;labelBackgroundColor=none;fontColor=default;strokeColor=#DDA15E;" parent="1" source="8EAAMGY7SLUVXrKPHWDD-41" target="8EAAMGY7SLUVXrKPHWDD-21" edge="1">
          <mxGeometry width="160" relative="1" as="geometry">
            <mxPoint x="712" y="452" as="sourcePoint" />
            <mxPoint x="900" y="322" as="targetPoint" />
          </mxGeometry>
        </mxCell>
        <mxCell id="ZEL4j_P76lbgU2SCLUvC-55" value="Use" style="endArrow=open;endSize=12;dashed=1;html=1;rounded=1;labelBackgroundColor=none;fontColor=default;strokeColor=#DDA15E;" parent="1" target="ZEL4j_P76lbgU2SCLUvC-10" edge="1">
          <mxGeometry width="160" relative="1" as="geometry">
            <mxPoint x="1661" y="812" as="sourcePoint" />
            <mxPoint x="1590" y="670" as="targetPoint" />
          </mxGeometry>
        </mxCell>
        <mxCell id="ZEL4j_P76lbgU2SCLUvC-56" value="Use" style="endArrow=open;endSize=12;dashed=1;html=1;rounded=1;labelBackgroundColor=none;fontColor=default;strokeColor=#DDA15E;" parent="1" target="LZu-NjYtR17rz2Tp9sWo-2" edge="1">
          <mxGeometry width="160" relative="1" as="geometry">
            <mxPoint x="320" y="150" as="sourcePoint" />
            <mxPoint x="830" y="180" as="targetPoint" />
          </mxGeometry>
        </mxCell>
        <mxCell id="ZEL4j_P76lbgU2SCLUvC-57" value="IInteractable" style="swimlane;fontStyle=0;childLayout=stackLayout;horizontal=1;startSize=26;fillColor=none;horizontalStack=0;resizeParent=1;resizeParentMax=0;resizeLast=0;collapsible=1;marginBottom=0;whiteSpace=wrap;html=1;rounded=1;labelBackgroundColor=none;strokeColor=#DDA15E;fontColor=#FEFAE0;" parent="1" vertex="1">
          <mxGeometry x="1195" y="440" width="420" height="52" as="geometry" />
        </mxCell>
        <mxCell id="ZEL4j_P76lbgU2SCLUvC-60" value="InteractingMethod[] GetInteractingMethods()" style="text;strokeColor=none;fillColor=none;align=left;verticalAlign=top;spacingLeft=4;spacingRight=4;overflow=hidden;rotatable=0;points=[[0,0.5],[1,0.5]];portConstraint=eastwest;whiteSpace=wrap;html=1;labelBackgroundColor=none;fontColor=#FEFAE0;rounded=1;" parent="ZEL4j_P76lbgU2SCLUvC-57" vertex="1">
          <mxGeometry y="26" width="420" height="26" as="geometry" />
        </mxCell>
        <mxCell id="ZEL4j_P76lbgU2SCLUvC-74" value="" style="endArrow=diamondThin;endFill=0;endSize=24;html=1;rounded=1;labelBackgroundColor=none;fontColor=default;strokeColor=#DDA15E;" parent="1" source="ZEL4j_P76lbgU2SCLUvC-57" target="ZEL4j_P76lbgU2SCLUvC-25" edge="1">
          <mxGeometry width="160" relative="1" as="geometry">
            <mxPoint x="1500" y="390" as="sourcePoint" />
            <mxPoint x="1590" y="390" as="targetPoint" />
          </mxGeometry>
        </mxCell>
        <mxCell id="ZEL4j_P76lbgU2SCLUvC-76" value="" style="endArrow=block;dashed=1;endFill=0;endSize=12;html=1;rounded=1;labelBackgroundColor=none;fontColor=default;strokeColor=#DDA15E;" parent="1" source="ZEL4j_P76lbgU2SCLUvC-57" target="ZEL4j_P76lbgU2SCLUvC-14" edge="1">
          <mxGeometry width="160" relative="1" as="geometry">
            <mxPoint x="1160" y="700" as="sourcePoint" />
            <mxPoint x="1200" y="580" as="targetPoint" />
          </mxGeometry>
        </mxCell>
        <mxCell id="ZEL4j_P76lbgU2SCLUvC-79" value="PlayerStatsManager" style="swimlane;fontStyle=0;childLayout=stackLayout;horizontal=1;startSize=26;fillColor=none;horizontalStack=0;resizeParent=1;resizeParentMax=0;resizeLast=0;collapsible=1;marginBottom=0;whiteSpace=wrap;html=1;rounded=1;labelBackgroundColor=none;strokeColor=#DDA15E;fontColor=#FEFAE0;" parent="1" vertex="1">
          <mxGeometry x="1330" y="-210" width="205" height="104" as="geometry" />
        </mxCell>
        <mxCell id="ZEL4j_P76lbgU2SCLUvC-82" value="Reputation Reputation" style="text;strokeColor=none;fillColor=none;align=left;verticalAlign=top;spacingLeft=4;spacingRight=4;overflow=hidden;rotatable=0;points=[[0,0.5],[1,0.5]];portConstraint=eastwest;whiteSpace=wrap;html=1;labelBackgroundColor=none;fontColor=#FEFAE0;rounded=1;" parent="ZEL4j_P76lbgU2SCLUvC-79" vertex="1">
          <mxGeometry y="26" width="205" height="26" as="geometry" />
        </mxCell>
        <mxCell id="HC6vs06m10PFqQaXT6nF-2" value="float Stamina" style="text;strokeColor=none;fillColor=none;align=left;verticalAlign=top;spacingLeft=4;spacingRight=4;overflow=hidden;rotatable=0;points=[[0,0.5],[1,0.5]];portConstraint=eastwest;whiteSpace=wrap;html=1;labelBackgroundColor=none;fontColor=#FEFAE0;rounded=1;" parent="ZEL4j_P76lbgU2SCLUvC-79" vertex="1">
          <mxGeometry y="52" width="205" height="26" as="geometry" />
        </mxCell>
        <mxCell id="HC6vs06m10PFqQaXT6nF-3" value="float Hunger" style="text;strokeColor=none;fillColor=none;align=left;verticalAlign=top;spacingLeft=4;spacingRight=4;overflow=hidden;rotatable=0;points=[[0,0.5],[1,0.5]];portConstraint=eastwest;whiteSpace=wrap;html=1;labelBackgroundColor=none;fontColor=#FEFAE0;rounded=1;" parent="ZEL4j_P76lbgU2SCLUvC-79" vertex="1">
          <mxGeometry y="78" width="205" height="26" as="geometry" />
        </mxCell>
        <mxCell id="HC6vs06m10PFqQaXT6nF-4" value="PlayerQuestManager" style="swimlane;fontStyle=0;childLayout=stackLayout;horizontal=1;startSize=26;fillColor=none;horizontalStack=0;resizeParent=1;resizeParentMax=0;resizeLast=0;collapsible=1;marginBottom=0;whiteSpace=wrap;html=1;rounded=1;labelBackgroundColor=none;strokeColor=#DDA15E;fontColor=#FEFAE0;" parent="1" vertex="1">
          <mxGeometry x="760" y="120" width="170" height="104" as="geometry" />
        </mxCell>
        <mxCell id="HC6vs06m10PFqQaXT6nF-5" value="Quest[] ActiveQuests" style="text;strokeColor=none;fillColor=none;align=left;verticalAlign=top;spacingLeft=4;spacingRight=4;overflow=hidden;rotatable=0;points=[[0,0.5],[1,0.5]];portConstraint=eastwest;whiteSpace=wrap;html=1;rounded=1;labelBackgroundColor=none;fontColor=#FEFAE0;" parent="HC6vs06m10PFqQaXT6nF-4" vertex="1">
          <mxGeometry y="26" width="170" height="26" as="geometry" />
        </mxCell>
        <mxCell id="HC6vs06m10PFqQaXT6nF-6" value="Quest[] CompletedQuests" style="text;strokeColor=none;fillColor=none;align=left;verticalAlign=top;spacingLeft=4;spacingRight=4;overflow=hidden;rotatable=0;points=[[0,0.5],[1,0.5]];portConstraint=eastwest;whiteSpace=wrap;html=1;rounded=1;labelBackgroundColor=none;fontColor=#FEFAE0;" parent="HC6vs06m10PFqQaXT6nF-4" vertex="1">
          <mxGeometry y="52" width="170" height="26" as="geometry" />
        </mxCell>
        <mxCell id="HC6vs06m10PFqQaXT6nF-7" value="Quest SelectedQuest" style="text;strokeColor=none;fillColor=none;align=left;verticalAlign=top;spacingLeft=4;spacingRight=4;overflow=hidden;rotatable=0;points=[[0,0.5],[1,0.5]];portConstraint=eastwest;whiteSpace=wrap;html=1;rounded=1;labelBackgroundColor=none;fontColor=#FEFAE0;" parent="HC6vs06m10PFqQaXT6nF-4" vertex="1">
          <mxGeometry y="78" width="170" height="26" as="geometry" />
        </mxCell>
        <mxCell id="HC6vs06m10PFqQaXT6nF-12" value="" style="endArrow=diamondThin;endFill=0;endSize=24;html=1;rounded=1;labelBackgroundColor=none;fontColor=default;strokeColor=#DDA15E;" parent="1" source="HC6vs06m10PFqQaXT6nF-4" target="8EAAMGY7SLUVXrKPHWDD-31" edge="1">
          <mxGeometry width="160" relative="1" as="geometry">
            <mxPoint x="880" y="526" as="sourcePoint" />
            <mxPoint x="790" y="526" as="targetPoint" />
          </mxGeometry>
        </mxCell>
        <mxCell id="HC6vs06m10PFqQaXT6nF-13" value="" style="endArrow=diamondThin;endFill=0;endSize=24;html=1;rounded=1;labelBackgroundColor=none;fontColor=default;strokeColor=#DDA15E;" parent="1" source="ZEL4j_P76lbgU2SCLUvC-79" target="8EAAMGY7SLUVXrKPHWDD-31" edge="1">
          <mxGeometry width="160" relative="1" as="geometry">
            <mxPoint x="800" y="265" as="sourcePoint" />
            <mxPoint x="840" y="257" as="targetPoint" />
          </mxGeometry>
        </mxCell>
        <mxCell id="HC6vs06m10PFqQaXT6nF-14" value="" style="endArrow=diamondThin;endFill=0;endSize=24;html=1;rounded=1;labelBackgroundColor=none;fontColor=default;strokeColor=#DDA15E;" parent="1" source="8EAAMGY7SLUVXrKPHWDD-37" target="8EAAMGY7SLUVXrKPHWDD-31" edge="1">
          <mxGeometry width="160" relative="1" as="geometry">
            <mxPoint x="1285" y="82" as="sourcePoint" />
            <mxPoint x="1160" y="144" as="targetPoint" />
          </mxGeometry>
        </mxCell>
        <mxCell id="HC6vs06m10PFqQaXT6nF-16" value="" style="endArrow=diamondThin;endFill=0;endSize=24;html=1;rounded=1;labelBackgroundColor=none;fontColor=default;strokeColor=#DDA15E;" parent="1" source="8EAAMGY7SLUVXrKPHWDD-66" target="8EAAMGY7SLUVXrKPHWDD-31" edge="1">
          <mxGeometry width="160" relative="1" as="geometry">
            <mxPoint x="1285" y="231" as="sourcePoint" />
            <mxPoint x="1160" y="222" as="targetPoint" />
          </mxGeometry>
        </mxCell>
        <mxCell id="HC6vs06m10PFqQaXT6nF-18" value="" style="endArrow=diamondThin;endFill=0;endSize=24;html=1;rounded=1;labelBackgroundColor=none;fontColor=default;strokeColor=#DDA15E;" parent="1" source="ZEL4j_P76lbgU2SCLUvC-25" target="8EAAMGY7SLUVXrKPHWDD-31" edge="1">
          <mxGeometry width="160" relative="1" as="geometry">
            <mxPoint x="1285" y="234" as="sourcePoint" />
            <mxPoint x="1160" y="230" as="targetPoint" />
          </mxGeometry>
        </mxCell>
        <mxCell id="HC6vs06m10PFqQaXT6nF-21" value="" style="endArrow=diamondThin;endFill=0;endSize=24;html=1;rounded=1;labelBackgroundColor=none;fontColor=default;strokeColor=#DDA15E;" parent="1" source="8EAAMGY7SLUVXrKPHWDD-41" target="8EAAMGY7SLUVXrKPHWDD-31" edge="1">
          <mxGeometry width="160" relative="1" as="geometry">
            <mxPoint x="1347" y="316" as="sourcePoint" />
            <mxPoint x="1180" y="233" as="targetPoint" />
          </mxGeometry>
        </mxCell>
        <mxCell id="HC6vs06m10PFqQaXT6nF-22" value="PlayerQuestPage" style="swimlane;fontStyle=0;childLayout=stackLayout;horizontal=1;startSize=26;fillColor=none;horizontalStack=0;resizeParent=1;resizeParentMax=0;resizeLast=0;collapsible=1;marginBottom=0;whiteSpace=wrap;html=1;strokeColor=#DDA15E;fontColor=#FEFAE0;rounded=1;labelBackgroundColor=none;" parent="1" vertex="1">
          <mxGeometry x="730" y="332" width="140" height="52" as="geometry" />
        </mxCell>
        <mxCell id="HC6vs06m10PFqQaXT6nF-24" value="-" style="text;strokeColor=none;fillColor=none;align=left;verticalAlign=top;spacingLeft=4;spacingRight=4;overflow=hidden;rotatable=0;points=[[0,0.5],[1,0.5]];portConstraint=eastwest;whiteSpace=wrap;html=1;fontColor=#FEFAE0;rounded=1;labelBackgroundColor=none;" parent="HC6vs06m10PFqQaXT6nF-22" vertex="1">
          <mxGeometry y="26" width="140" height="26" as="geometry" />
        </mxCell>
        <mxCell id="HC6vs06m10PFqQaXT6nF-26" value="" style="endArrow=diamondThin;endFill=1;endSize=24;html=1;rounded=1;strokeColor=#DDA15E;fontColor=default;fillColor=#BC6C25;labelBackgroundColor=none;" parent="1" source="HC6vs06m10PFqQaXT6nF-4" target="HC6vs06m10PFqQaXT6nF-22" edge="1">
          <mxGeometry width="160" relative="1" as="geometry">
            <mxPoint x="710" y="400" as="sourcePoint" />
            <mxPoint x="870" y="400" as="targetPoint" />
          </mxGeometry>
        </mxCell>
        <mxCell id="HC6vs06m10PFqQaXT6nF-27" value="Extends" style="endArrow=block;endSize=16;endFill=0;html=1;rounded=1;labelBackgroundColor=none;fontColor=default;strokeColor=#DDA15E;" parent="1" source="HC6vs06m10PFqQaXT6nF-22" target="8EAAMGY7SLUVXrKPHWDD-7" edge="1">
          <mxGeometry width="160" relative="1" as="geometry">
            <mxPoint x="666" y="500" as="sourcePoint" />
            <mxPoint x="546" y="368" as="targetPoint" />
          </mxGeometry>
        </mxCell>
        <mxCell id="HC6vs06m10PFqQaXT6nF-28" value="Quest" style="swimlane;fontStyle=0;childLayout=stackLayout;horizontal=1;startSize=26;fillColor=none;horizontalStack=0;resizeParent=1;resizeParentMax=0;resizeLast=0;collapsible=1;marginBottom=0;whiteSpace=wrap;html=1;rounded=1;strokeColor=#DDA15E;fontColor=#FEFAE0;labelBackgroundColor=none;" parent="1" vertex="1">
          <mxGeometry x="700" y="-200" width="150" height="260" as="geometry" />
        </mxCell>
        <mxCell id="HC6vs06m10PFqQaXT6nF-30" value="QuestState State" style="text;strokeColor=none;fillColor=none;align=left;verticalAlign=top;spacingLeft=4;spacingRight=4;overflow=hidden;rotatable=0;points=[[0,0.5],[1,0.5]];portConstraint=eastwest;whiteSpace=wrap;html=1;fontColor=#FEFAE0;rounded=1;labelBackgroundColor=none;" parent="HC6vs06m10PFqQaXT6nF-28" vertex="1">
          <mxGeometry y="26" width="150" height="26" as="geometry" />
        </mxCell>
        <mxCell id="HC6vs06m10PFqQaXT6nF-32" value="string Name" style="text;strokeColor=none;fillColor=none;align=left;verticalAlign=top;spacingLeft=4;spacingRight=4;overflow=hidden;rotatable=0;points=[[0,0.5],[1,0.5]];portConstraint=eastwest;whiteSpace=wrap;html=1;fontColor=#FEFAE0;rounded=1;labelBackgroundColor=none;" parent="HC6vs06m10PFqQaXT6nF-28" vertex="1">
          <mxGeometry y="52" width="150" height="26" as="geometry" />
        </mxCell>
        <mxCell id="HC6vs06m10PFqQaXT6nF-53" value="string Id" style="text;strokeColor=none;fillColor=none;align=left;verticalAlign=top;spacingLeft=4;spacingRight=4;overflow=hidden;rotatable=0;points=[[0,0.5],[1,0.5]];portConstraint=eastwest;whiteSpace=wrap;html=1;fontColor=#FEFAE0;rounded=1;labelBackgroundColor=none;" parent="HC6vs06m10PFqQaXT6nF-28" vertex="1">
          <mxGeometry y="78" width="150" height="26" as="geometry" />
        </mxCell>
        <mxCell id="HC6vs06m10PFqQaXT6nF-33" value="string Description" style="text;strokeColor=none;fillColor=none;align=left;verticalAlign=top;spacingLeft=4;spacingRight=4;overflow=hidden;rotatable=0;points=[[0,0.5],[1,0.5]];portConstraint=eastwest;whiteSpace=wrap;html=1;fontColor=#FEFAE0;rounded=1;labelBackgroundColor=none;" parent="HC6vs06m10PFqQaXT6nF-28" vertex="1">
          <mxGeometry y="104" width="150" height="26" as="geometry" />
        </mxCell>
        <mxCell id="HC6vs06m10PFqQaXT6nF-49" value="QuestRewards Rewards" style="text;strokeColor=none;fillColor=none;align=left;verticalAlign=top;spacingLeft=4;spacingRight=4;overflow=hidden;rotatable=0;points=[[0,0.5],[1,0.5]];portConstraint=eastwest;whiteSpace=wrap;html=1;fontColor=#FEFAE0;rounded=1;labelBackgroundColor=none;" parent="HC6vs06m10PFqQaXT6nF-28" vertex="1">
          <mxGeometry y="130" width="150" height="26" as="geometry" />
        </mxCell>
        <mxCell id="HC6vs06m10PFqQaXT6nF-75" value="QuestTask[] Tasks" style="text;strokeColor=none;fillColor=none;align=left;verticalAlign=top;spacingLeft=4;spacingRight=4;overflow=hidden;rotatable=0;points=[[0,0.5],[1,0.5]];portConstraint=eastwest;whiteSpace=wrap;html=1;fontColor=#FEFAE0;rounded=1;labelBackgroundColor=none;" parent="HC6vs06m10PFqQaXT6nF-28" vertex="1">
          <mxGeometry y="156" width="150" height="26" as="geometry" />
        </mxCell>
        <mxCell id="HC6vs06m10PFqQaXT6nF-77" value="void ShowHints()" style="text;strokeColor=none;fillColor=none;align=left;verticalAlign=top;spacingLeft=4;spacingRight=4;overflow=hidden;rotatable=0;points=[[0,0.5],[1,0.5]];portConstraint=eastwest;whiteSpace=wrap;html=1;fontColor=#FEFAE0;rounded=1;labelBackgroundColor=none;" parent="HC6vs06m10PFqQaXT6nF-28" vertex="1">
          <mxGeometry y="182" width="150" height="26" as="geometry" />
        </mxCell>
        <mxCell id="HC6vs06m10PFqQaXT6nF-85" value="void HideHints()" style="text;strokeColor=none;fillColor=none;align=left;verticalAlign=top;spacingLeft=4;spacingRight=4;overflow=hidden;rotatable=0;points=[[0,0.5],[1,0.5]];portConstraint=eastwest;whiteSpace=wrap;html=1;fontColor=#FEFAE0;rounded=1;labelBackgroundColor=none;" parent="HC6vs06m10PFqQaXT6nF-28" vertex="1">
          <mxGeometry y="208" width="150" height="26" as="geometry" />
        </mxCell>
        <mxCell id="HC6vs06m10PFqQaXT6nF-34" value="QuestTask ActiveTask" style="text;strokeColor=none;fillColor=none;align=left;verticalAlign=top;spacingLeft=4;spacingRight=4;overflow=hidden;rotatable=0;points=[[0,0.5],[1,0.5]];portConstraint=eastwest;whiteSpace=wrap;html=1;fontColor=#FEFAE0;rounded=1;labelBackgroundColor=none;" parent="HC6vs06m10PFqQaXT6nF-28" vertex="1">
          <mxGeometry y="234" width="150" height="26" as="geometry" />
        </mxCell>
        <mxCell id="HC6vs06m10PFqQaXT6nF-35" value="QuestRewards" style="swimlane;fontStyle=0;childLayout=stackLayout;horizontal=1;startSize=26;fillColor=none;horizontalStack=0;resizeParent=1;resizeParentMax=0;resizeLast=0;collapsible=1;marginBottom=0;whiteSpace=wrap;html=1;rounded=1;strokeColor=#DDA15E;fontColor=#FEFAE0;labelBackgroundColor=none;" parent="1" vertex="1">
          <mxGeometry x="470" y="-220" width="160" height="104" as="geometry" />
        </mxCell>
        <mxCell id="HC6vs06m10PFqQaXT6nF-38" value="Items[] Items" style="text;strokeColor=none;fillColor=none;align=left;verticalAlign=top;spacingLeft=4;spacingRight=4;overflow=hidden;rotatable=0;points=[[0,0.5],[1,0.5]];portConstraint=eastwest;whiteSpace=wrap;html=1;fontColor=#FEFAE0;rounded=1;labelBackgroundColor=none;" parent="HC6vs06m10PFqQaXT6nF-35" vertex="1">
          <mxGeometry y="26" width="160" height="26" as="geometry" />
        </mxCell>
        <mxCell id="HC6vs06m10PFqQaXT6nF-39" value="Reputation Reputation" style="text;strokeColor=none;fillColor=none;align=left;verticalAlign=top;spacingLeft=4;spacingRight=4;overflow=hidden;rotatable=0;points=[[0,0.5],[1,0.5]];portConstraint=eastwest;whiteSpace=wrap;html=1;fontColor=#FEFAE0;rounded=1;labelBackgroundColor=none;" parent="HC6vs06m10PFqQaXT6nF-35" vertex="1">
          <mxGeometry y="52" width="160" height="26" as="geometry" />
        </mxCell>
        <mxCell id="HC6vs06m10PFqQaXT6nF-40" value="Function FunctionalReward" style="text;strokeColor=none;fillColor=none;align=left;verticalAlign=top;spacingLeft=4;spacingRight=4;overflow=hidden;rotatable=0;points=[[0,0.5],[1,0.5]];portConstraint=eastwest;whiteSpace=wrap;html=1;fontColor=#FEFAE0;rounded=1;labelBackgroundColor=none;" parent="HC6vs06m10PFqQaXT6nF-35" vertex="1">
          <mxGeometry y="78" width="160" height="26" as="geometry" />
        </mxCell>
        <mxCell id="HC6vs06m10PFqQaXT6nF-42" value="" style="endArrow=diamondThin;endFill=1;endSize=24;html=1;rounded=1;strokeColor=#DDA15E;fontColor=default;fillColor=#BC6C25;labelBackgroundColor=none;" parent="1" source="HC6vs06m10PFqQaXT6nF-28" target="HC6vs06m10PFqQaXT6nF-4" edge="1">
          <mxGeometry width="160" relative="1" as="geometry">
            <mxPoint x="670" y="90" as="sourcePoint" />
            <mxPoint x="830" y="90" as="targetPoint" />
          </mxGeometry>
        </mxCell>
        <mxCell id="HC6vs06m10PFqQaXT6nF-43" value="" style="endArrow=diamondThin;endFill=1;endSize=24;html=1;rounded=1;strokeColor=#DDA15E;fontColor=default;fillColor=#BC6C25;labelBackgroundColor=none;" parent="1" source="HC6vs06m10PFqQaXT6nF-35" target="HC6vs06m10PFqQaXT6nF-28" edge="1">
          <mxGeometry width="160" relative="1" as="geometry">
            <mxPoint x="550" y="10" as="sourcePoint" />
            <mxPoint x="710" y="10" as="targetPoint" />
          </mxGeometry>
        </mxCell>
        <mxCell id="HC6vs06m10PFqQaXT6nF-44" value="QuestTask" style="swimlane;fontStyle=0;childLayout=stackLayout;horizontal=1;startSize=26;fillColor=none;horizontalStack=0;resizeParent=1;resizeParentMax=0;resizeLast=0;collapsible=1;marginBottom=0;whiteSpace=wrap;html=1;rounded=1;strokeColor=#DDA15E;fontColor=#FEFAE0;labelBackgroundColor=none;" parent="1" vertex="1">
          <mxGeometry x="480" y="-80" width="140" height="130" as="geometry" />
        </mxCell>
        <mxCell id="HC6vs06m10PFqQaXT6nF-79" value="string Description" style="text;strokeColor=none;fillColor=none;align=left;verticalAlign=top;spacingLeft=4;spacingRight=4;overflow=hidden;rotatable=0;points=[[0,0.5],[1,0.5]];portConstraint=eastwest;whiteSpace=wrap;html=1;fontColor=#FEFAE0;rounded=1;labelBackgroundColor=none;" parent="HC6vs06m10PFqQaXT6nF-44" vertex="1">
          <mxGeometry y="26" width="140" height="26" as="geometry" />
        </mxCell>
        <mxCell id="HC6vs06m10PFqQaXT6nF-82" value="string GetProgress()" style="text;strokeColor=none;fillColor=none;align=left;verticalAlign=top;spacingLeft=4;spacingRight=4;overflow=hidden;rotatable=0;points=[[0,0.5],[1,0.5]];portConstraint=eastwest;whiteSpace=wrap;html=1;fontColor=#FEFAE0;rounded=1;labelBackgroundColor=none;" parent="HC6vs06m10PFqQaXT6nF-44" vertex="1">
          <mxGeometry y="52" width="140" height="26" as="geometry" />
        </mxCell>
        <mxCell id="HC6vs06m10PFqQaXT6nF-131" value="bool IsCompleted" style="text;strokeColor=none;fillColor=none;align=left;verticalAlign=top;spacingLeft=4;spacingRight=4;overflow=hidden;rotatable=0;points=[[0,0.5],[1,0.5]];portConstraint=eastwest;whiteSpace=wrap;html=1;fontColor=#FEFAE0;rounded=1;labelBackgroundColor=none;" parent="HC6vs06m10PFqQaXT6nF-44" vertex="1">
          <mxGeometry y="78" width="140" height="26" as="geometry" />
        </mxCell>
        <mxCell id="HC6vs06m10PFqQaXT6nF-71" value="Action OnCompleted" style="text;strokeColor=none;fillColor=none;align=left;verticalAlign=top;spacingLeft=4;spacingRight=4;overflow=hidden;rotatable=0;points=[[0,0.5],[1,0.5]];portConstraint=eastwest;whiteSpace=wrap;html=1;fontColor=#FEFAE0;rounded=1;labelBackgroundColor=none;" parent="HC6vs06m10PFqQaXT6nF-44" vertex="1">
          <mxGeometry y="104" width="140" height="26" as="geometry" />
        </mxCell>
        <mxCell id="HC6vs06m10PFqQaXT6nF-52" value="" style="endArrow=diamondThin;endFill=1;endSize=24;html=1;rounded=1;strokeColor=#DDA15E;fontColor=default;fillColor=#BC6C25;labelBackgroundColor=none;" parent="1" source="HC6vs06m10PFqQaXT6nF-44" target="HC6vs06m10PFqQaXT6nF-28" edge="1">
          <mxGeometry width="160" relative="1" as="geometry">
            <mxPoint x="540" y="50" as="sourcePoint" />
            <mxPoint x="700" y="50" as="targetPoint" />
          </mxGeometry>
        </mxCell>
        <mxCell id="HC6vs06m10PFqQaXT6nF-54" value="GlobalEventsManager" style="swimlane;fontStyle=0;childLayout=stackLayout;horizontal=1;startSize=26;fillColor=none;horizontalStack=0;resizeParent=1;resizeParentMax=0;resizeLast=0;collapsible=1;marginBottom=0;whiteSpace=wrap;html=1;rounded=1;strokeColor=#DDA15E;fontColor=#FEFAE0;labelBackgroundColor=none;" parent="1" vertex="1">
          <mxGeometry x="723" y="-673" width="210" height="52" as="geometry" />
        </mxCell>
        <mxCell id="HC6vs06m10PFqQaXT6nF-55" value="...GlobalEvent *globalEventName*..." style="text;strokeColor=none;fillColor=none;align=left;verticalAlign=top;spacingLeft=4;spacingRight=4;overflow=hidden;rotatable=0;points=[[0,0.5],[1,0.5]];portConstraint=eastwest;whiteSpace=wrap;html=1;fontColor=#FEFAE0;rounded=1;labelBackgroundColor=none;" parent="HC6vs06m10PFqQaXT6nF-54" vertex="1">
          <mxGeometry y="26" width="210" height="26" as="geometry" />
        </mxCell>
        <mxCell id="HC6vs06m10PFqQaXT6nF-58" value="GlobalEvent&amp;lt;T = void&amp;gt;" style="swimlane;fontStyle=0;childLayout=stackLayout;horizontal=1;startSize=26;fillColor=none;horizontalStack=0;resizeParent=1;resizeParentMax=0;resizeLast=0;collapsible=1;marginBottom=0;whiteSpace=wrap;html=1;rounded=1;strokeColor=#DDA15E;fontColor=#FEFAE0;labelBackgroundColor=none;" parent="1" vertex="1">
          <mxGeometry x="653" y="-840" width="350" height="104" as="geometry" />
        </mxCell>
        <mxCell id="HC6vs06m10PFqQaXT6nF-59" value="void Invoke(T arg)" style="text;strokeColor=none;fillColor=none;align=left;verticalAlign=top;spacingLeft=4;spacingRight=4;overflow=hidden;rotatable=0;points=[[0,0.5],[1,0.5]];portConstraint=eastwest;whiteSpace=wrap;html=1;fontColor=#FEFAE0;rounded=1;labelBackgroundColor=none;" parent="HC6vs06m10PFqQaXT6nF-58" vertex="1">
          <mxGeometry y="26" width="350" height="26" as="geometry" />
        </mxCell>
        <mxCell id="HC6vs06m10PFqQaXT6nF-60" value="void Subscribe(Action&amp;lt;T&amp;gt; func, IGlobalEventListener listener)" style="text;strokeColor=none;fillColor=none;align=left;verticalAlign=top;spacingLeft=4;spacingRight=4;overflow=hidden;rotatable=0;points=[[0,0.5],[1,0.5]];portConstraint=eastwest;whiteSpace=wrap;html=1;fontColor=#FEFAE0;rounded=1;labelBackgroundColor=none;" parent="HC6vs06m10PFqQaXT6nF-58" vertex="1">
          <mxGeometry y="52" width="350" height="26" as="geometry" />
        </mxCell>
        <mxCell id="HC6vs06m10PFqQaXT6nF-61" value="void Unsubscribe(Action&amp;lt;T&amp;gt; func)" style="text;strokeColor=none;fillColor=none;align=left;verticalAlign=top;spacingLeft=4;spacingRight=4;overflow=hidden;rotatable=0;points=[[0,0.5],[1,0.5]];portConstraint=eastwest;whiteSpace=wrap;html=1;fontColor=#FEFAE0;rounded=1;labelBackgroundColor=none;" parent="HC6vs06m10PFqQaXT6nF-58" vertex="1">
          <mxGeometry y="78" width="350" height="26" as="geometry" />
        </mxCell>
        <mxCell id="HC6vs06m10PFqQaXT6nF-62" value="" style="endArrow=diamondThin;endFill=1;endSize=24;html=1;rounded=1;strokeColor=#DDA15E;fontColor=default;fillColor=#BC6C25;labelBackgroundColor=none;" parent="1" source="HC6vs06m10PFqQaXT6nF-58" target="HC6vs06m10PFqQaXT6nF-54" edge="1">
          <mxGeometry width="160" relative="1" as="geometry">
            <mxPoint x="958" y="-514" as="sourcePoint" />
            <mxPoint x="1118" y="-514" as="targetPoint" />
          </mxGeometry>
        </mxCell>
        <mxCell id="HC6vs06m10PFqQaXT6nF-63" value="IGlobalEventListener" style="swimlane;fontStyle=0;childLayout=stackLayout;horizontal=1;startSize=26;fillColor=none;horizontalStack=0;resizeParent=1;resizeParentMax=0;resizeLast=0;collapsible=1;marginBottom=0;whiteSpace=wrap;html=1;rounded=1;strokeColor=#DDA15E;fontColor=#FEFAE0;labelBackgroundColor=none;" parent="1" vertex="1">
          <mxGeometry x="693" y="-950" width="270" height="52" as="geometry" />
        </mxCell>
        <mxCell id="HC6vs06m10PFqQaXT6nF-66" value="void OnDestroy()" style="text;strokeColor=none;fillColor=none;align=left;verticalAlign=top;spacingLeft=4;spacingRight=4;overflow=hidden;rotatable=0;points=[[0,0.5],[1,0.5]];portConstraint=eastwest;whiteSpace=wrap;html=1;fontColor=#FEFAE0;rounded=1;labelBackgroundColor=none;" parent="HC6vs06m10PFqQaXT6nF-63" vertex="1">
          <mxGeometry y="26" width="270" height="26" as="geometry" />
        </mxCell>
        <mxCell id="HC6vs06m10PFqQaXT6nF-68" value="" style="endArrow=diamondThin;endFill=1;endSize=24;html=1;rounded=1;strokeColor=#DDA15E;fontColor=default;fillColor=#BC6C25;labelBackgroundColor=none;" parent="1" source="HC6vs06m10PFqQaXT6nF-63" target="HC6vs06m10PFqQaXT6nF-58" edge="1">
          <mxGeometry width="160" relative="1" as="geometry">
            <mxPoint x="718" y="-644" as="sourcePoint" />
            <mxPoint x="878" y="-644" as="targetPoint" />
          </mxGeometry>
        </mxCell>
        <mxCell id="HC6vs06m10PFqQaXT6nF-69" value="Use" style="endArrow=open;endSize=12;dashed=1;html=1;rounded=1;strokeColor=#DDA15E;fontColor=default;fillColor=#BC6C25;labelBackgroundColor=none;" parent="1" target="HC6vs06m10PFqQaXT6nF-54" edge="1">
          <mxGeometry width="160" relative="1" as="geometry">
            <mxPoint x="828" y="-560" as="sourcePoint" />
            <mxPoint x="823" y="-383" as="targetPoint" />
          </mxGeometry>
        </mxCell>
        <mxCell id="HC6vs06m10PFqQaXT6nF-87" value="SaveManager" style="swimlane;fontStyle=0;childLayout=stackLayout;horizontal=1;startSize=26;fillColor=none;horizontalStack=0;resizeParent=1;resizeParentMax=0;resizeLast=0;collapsible=1;marginBottom=0;whiteSpace=wrap;html=1;rounded=1;strokeColor=#DDA15E;fontColor=#FEFAE0;labelBackgroundColor=none;" parent="1" vertex="1">
          <mxGeometry x="1690" y="-125" width="180" height="104" as="geometry" />
        </mxCell>
        <mxCell id="HC6vs06m10PFqQaXT6nF-90" value="void SaveGame()" style="text;strokeColor=none;fillColor=none;align=left;verticalAlign=top;spacingLeft=4;spacingRight=4;overflow=hidden;rotatable=0;points=[[0,0.5],[1,0.5]];portConstraint=eastwest;whiteSpace=wrap;html=1;fontColor=#FEFAE0;rounded=1;labelBackgroundColor=none;" parent="HC6vs06m10PFqQaXT6nF-87" vertex="1">
          <mxGeometry y="26" width="180" height="26" as="geometry" />
        </mxCell>
        <mxCell id="HC6vs06m10PFqQaXT6nF-91" value="void LoadGame()" style="text;strokeColor=none;fillColor=none;align=left;verticalAlign=top;spacingLeft=4;spacingRight=4;overflow=hidden;rotatable=0;points=[[0,0.5],[1,0.5]];portConstraint=eastwest;whiteSpace=wrap;html=1;fontColor=#FEFAE0;rounded=1;labelBackgroundColor=none;" parent="HC6vs06m10PFqQaXT6nF-87" vertex="1">
          <mxGeometry y="52" width="180" height="26" as="geometry" />
        </mxCell>
        <mxCell id="HC6vs06m10PFqQaXT6nF-97" value="List&amp;lt;ISaveable&amp;gt; Saveables" style="text;strokeColor=none;fillColor=none;align=left;verticalAlign=top;spacingLeft=4;spacingRight=4;overflow=hidden;rotatable=0;points=[[0,0.5],[1,0.5]];portConstraint=eastwest;whiteSpace=wrap;html=1;fontColor=#FEFAE0;rounded=1;labelBackgroundColor=none;" parent="HC6vs06m10PFqQaXT6nF-87" vertex="1">
          <mxGeometry y="78" width="180" height="26" as="geometry" />
        </mxCell>
        <mxCell id="HC6vs06m10PFqQaXT6nF-92" value="ISaveable" style="swimlane;fontStyle=0;childLayout=stackLayout;horizontal=1;startSize=26;fillColor=none;horizontalStack=0;resizeParent=1;resizeParentMax=0;resizeLast=0;collapsible=1;marginBottom=0;whiteSpace=wrap;html=1;rounded=1;strokeColor=#DDA15E;fontColor=#FEFAE0;labelBackgroundColor=none;" parent="1" vertex="1">
          <mxGeometry x="1700" y="35" width="160" height="104" as="geometry" />
        </mxCell>
        <mxCell id="HC6vs06m10PFqQaXT6nF-94" value="string GetFieldName()" style="text;strokeColor=none;fillColor=none;align=left;verticalAlign=top;spacingLeft=4;spacingRight=4;overflow=hidden;rotatable=0;points=[[0,0.5],[1,0.5]];portConstraint=eastwest;whiteSpace=wrap;html=1;fontColor=#FEFAE0;rounded=1;labelBackgroundColor=none;" parent="HC6vs06m10PFqQaXT6nF-92" vertex="1">
          <mxGeometry y="26" width="160" height="26" as="geometry" />
        </mxCell>
        <mxCell id="HC6vs06m10PFqQaXT6nF-141" value="void OnLoad(string data)" style="text;strokeColor=none;fillColor=none;align=left;verticalAlign=top;spacingLeft=4;spacingRight=4;overflow=hidden;rotatable=0;points=[[0,0.5],[1,0.5]];portConstraint=eastwest;whiteSpace=wrap;html=1;fontColor=#FEFAE0;rounded=1;labelBackgroundColor=none;" parent="HC6vs06m10PFqQaXT6nF-92" vertex="1">
          <mxGeometry y="52" width="160" height="26" as="geometry" />
        </mxCell>
        <mxCell id="HC6vs06m10PFqQaXT6nF-95" value="void GetDataJson()" style="text;strokeColor=none;fillColor=none;align=left;verticalAlign=top;spacingLeft=4;spacingRight=4;overflow=hidden;rotatable=0;points=[[0,0.5],[1,0.5]];portConstraint=eastwest;whiteSpace=wrap;html=1;fontColor=#FEFAE0;rounded=1;labelBackgroundColor=none;" parent="HC6vs06m10PFqQaXT6nF-92" vertex="1">
          <mxGeometry y="78" width="160" height="26" as="geometry" />
        </mxCell>
        <mxCell id="HC6vs06m10PFqQaXT6nF-98" value="" style="endArrow=diamondThin;endFill=1;endSize=24;html=1;rounded=1;strokeColor=#DDA15E;fontColor=default;fillColor=#BC6C25;labelBackgroundColor=none;" parent="1" source="HC6vs06m10PFqQaXT6nF-92" target="HC6vs06m10PFqQaXT6nF-87" edge="1">
          <mxGeometry width="160" relative="1" as="geometry">
            <mxPoint x="1150.0000000000005" y="-174" as="sourcePoint" />
            <mxPoint x="1110" y="-200" as="targetPoint" />
          </mxGeometry>
        </mxCell>
        <mxCell id="HC6vs06m10PFqQaXT6nF-99" value="" style="endArrow=block;dashed=1;endFill=0;endSize=12;html=1;rounded=1;strokeColor=#DDA15E;fontColor=default;fillColor=#BC6C25;labelBackgroundColor=none;" parent="1" source="8EAAMGY7SLUVXrKPHWDD-31" target="HC6vs06m10PFqQaXT6nF-92" edge="1">
          <mxGeometry width="160" relative="1" as="geometry">
            <mxPoint x="1070" y="-110" as="sourcePoint" />
            <mxPoint x="1420" y="-360" as="targetPoint" />
          </mxGeometry>
        </mxCell>
        <mxCell id="HC6vs06m10PFqQaXT6nF-106" value="Use" style="endArrow=open;endSize=12;dashed=1;html=1;rounded=1;strokeColor=#DDA15E;fontColor=default;fillColor=#BC6C25;labelBackgroundColor=none;" parent="1" target="8EAAMGY7SLUVXrKPHWDD-31" edge="1">
          <mxGeometry width="160" relative="1" as="geometry">
            <mxPoint x="1160" y="-80" as="sourcePoint" />
            <mxPoint x="1170" y="-120" as="targetPoint" />
          </mxGeometry>
        </mxCell>
        <mxCell id="HC6vs06m10PFqQaXT6nF-107" value="IInteractor" style="swimlane;fontStyle=0;childLayout=stackLayout;horizontal=1;startSize=26;fillColor=none;horizontalStack=0;resizeParent=1;resizeParentMax=0;resizeLast=0;collapsible=1;marginBottom=0;whiteSpace=wrap;html=1;rounded=1;strokeColor=#DDA15E;fontColor=#FEFAE0;labelBackgroundColor=none;" parent="1" vertex="1">
          <mxGeometry x="1695" y="184" width="170" height="52" as="geometry" />
        </mxCell>
        <mxCell id="HC6vs06m10PFqQaXT6nF-112" value="InteractorType GetType()" style="text;strokeColor=none;fillColor=none;align=left;verticalAlign=top;spacingLeft=4;spacingRight=4;overflow=hidden;rotatable=0;points=[[0,0.5],[1,0.5]];portConstraint=eastwest;whiteSpace=wrap;html=1;rounded=1;labelBackgroundColor=none;fontColor=#FEFAE0;" parent="HC6vs06m10PFqQaXT6nF-107" vertex="1">
          <mxGeometry y="26" width="170" height="26" as="geometry" />
        </mxCell>
        <mxCell id="HC6vs06m10PFqQaXT6nF-114" value="" style="endArrow=diamondThin;endFill=0;endSize=24;html=1;rounded=1;strokeColor=#DDA15E;fontColor=default;fillColor=#BC6C25;labelBackgroundColor=none;" parent="1" source="HC6vs06m10PFqQaXT6nF-107" target="ZEL4j_P76lbgU2SCLUvC-57" edge="1">
          <mxGeometry width="160" relative="1" as="geometry">
            <mxPoint x="1140" y="390" as="sourcePoint" />
            <mxPoint x="1250" y="400" as="targetPoint" />
          </mxGeometry>
        </mxCell>
        <mxCell id="HC6vs06m10PFqQaXT6nF-115" value="" style="endArrow=block;dashed=1;endFill=0;endSize=12;html=1;rounded=1;strokeColor=#DDA15E;fontColor=default;fillColor=#BC6C25;labelBackgroundColor=none;" parent="1" source="8EAAMGY7SLUVXrKPHWDD-31" target="HC6vs06m10PFqQaXT6nF-107" edge="1">
          <mxGeometry width="160" relative="1" as="geometry">
            <mxPoint x="1190" y="260" as="sourcePoint" />
            <mxPoint x="1310" y="270" as="targetPoint" />
          </mxGeometry>
        </mxCell>
        <mxCell id="HC6vs06m10PFqQaXT6nF-116" value="NPC" style="swimlane;fontStyle=0;childLayout=stackLayout;horizontal=1;startSize=26;fillColor=none;horizontalStack=0;resizeParent=1;resizeParentMax=0;resizeLast=0;collapsible=1;marginBottom=0;whiteSpace=wrap;html=1;rounded=1;strokeColor=#DDA15E;fontColor=#FEFAE0;labelBackgroundColor=none;" parent="1" vertex="1">
          <mxGeometry x="1732" y="430" width="255" height="78" as="geometry" />
        </mxCell>
        <mxCell id="HC6vs06m10PFqQaXT6nF-119" value="string Name" style="text;strokeColor=none;fillColor=none;align=left;verticalAlign=top;spacingLeft=4;spacingRight=4;overflow=hidden;rotatable=0;points=[[0,0.5],[1,0.5]];portConstraint=eastwest;whiteSpace=wrap;html=1;fontColor=#FEFAE0;rounded=1;labelBackgroundColor=none;" parent="HC6vs06m10PFqQaXT6nF-116" vertex="1">
          <mxGeometry y="26" width="255" height="26" as="geometry" />
        </mxCell>
        <mxCell id="HC6vs06m10PFqQaXT6nF-129" value="void OnPlayerInteract()" style="text;strokeColor=none;fillColor=none;align=left;verticalAlign=top;spacingLeft=4;spacingRight=4;overflow=hidden;rotatable=0;points=[[0,0.5],[1,0.5]];portConstraint=eastwest;whiteSpace=wrap;html=1;fontColor=#FEFAE0;rounded=1;labelBackgroundColor=none;" parent="HC6vs06m10PFqQaXT6nF-116" vertex="1">
          <mxGeometry y="52" width="255" height="26" as="geometry" />
        </mxCell>
        <mxCell id="HC6vs06m10PFqQaXT6nF-120" value="Enit&lt;span style=&quot;background-color: initial;&quot;&gt;y&lt;/span&gt;" style="swimlane;fontStyle=0;childLayout=stackLayout;horizontal=1;startSize=26;fillColor=none;horizontalStack=0;resizeParent=1;resizeParentMax=0;resizeLast=0;collapsible=1;marginBottom=0;whiteSpace=wrap;html=1;rounded=1;strokeColor=#DDA15E;fontColor=#FEFAE0;labelBackgroundColor=none;" parent="1" vertex="1">
          <mxGeometry x="1876" y="285" width="179" height="52" as="geometry" />
        </mxCell>
        <mxCell id="HC6vs06m10PFqQaXT6nF-123" value="просто чилловый парень" style="text;strokeColor=none;fillColor=none;align=left;verticalAlign=top;spacingLeft=4;spacingRight=4;overflow=hidden;rotatable=0;points=[[0,0.5],[1,0.5]];portConstraint=eastwest;whiteSpace=wrap;html=1;fontColor=#FEFAE0;rounded=1;labelBackgroundColor=none;" parent="HC6vs06m10PFqQaXT6nF-120" vertex="1">
          <mxGeometry y="26" width="179" height="26" as="geometry" />
        </mxCell>
        <mxCell id="HC6vs06m10PFqQaXT6nF-125" value="Extends" style="endArrow=block;endSize=16;endFill=0;html=1;rounded=1;strokeColor=#DDA15E;fontColor=default;fillColor=#BC6C25;labelBackgroundColor=none;" parent="1" source="HC6vs06m10PFqQaXT6nF-116" target="HC6vs06m10PFqQaXT6nF-120" edge="1">
          <mxGeometry width="160" relative="1" as="geometry">
            <mxPoint x="1993" y="298" as="sourcePoint" />
            <mxPoint x="2153" y="298" as="targetPoint" />
          </mxGeometry>
        </mxCell>
        <mxCell id="HC6vs06m10PFqQaXT6nF-126" value="" style="endArrow=block;dashed=1;endFill=0;endSize=12;html=1;rounded=1;strokeColor=#DDA15E;fontColor=default;fillColor=#BC6C25;labelBackgroundColor=none;" parent="1" source="HC6vs06m10PFqQaXT6nF-120" target="HC6vs06m10PFqQaXT6nF-107" edge="1">
          <mxGeometry width="160" relative="1" as="geometry">
            <mxPoint x="1930" y="105" as="sourcePoint" />
            <mxPoint x="1970" y="276" as="targetPoint" />
          </mxGeometry>
        </mxCell>
        <mxCell id="HC6vs06m10PFqQaXT6nF-128" value="" style="endArrow=block;dashed=1;endFill=0;endSize=12;html=1;rounded=1;strokeColor=#DDA15E;fontColor=default;fillColor=#BC6C25;labelBackgroundColor=none;" parent="1" source="HC6vs06m10PFqQaXT6nF-116" target="ZEL4j_P76lbgU2SCLUvC-57" edge="1">
          <mxGeometry width="160" relative="1" as="geometry">
            <mxPoint x="1665" y="425" as="sourcePoint" />
            <mxPoint x="1835" y="353" as="targetPoint" />
          </mxGeometry>
        </mxCell>
        <mxCell id="HC6vs06m10PFqQaXT6nF-134" value="EntityManager" style="swimlane;fontStyle=0;childLayout=stackLayout;horizontal=1;startSize=26;fillColor=none;horizontalStack=0;resizeParent=1;resizeParentMax=0;resizeLast=0;collapsible=1;marginBottom=0;whiteSpace=wrap;html=1;rounded=1;strokeColor=#DDA15E;fontColor=#FEFAE0;labelBackgroundColor=none;" parent="1" vertex="1">
          <mxGeometry x="1954" y="106" width="253" height="52" as="geometry" />
        </mxCell>
        <mxCell id="HC6vs06m10PFqQaXT6nF-137" value="пока не сделано" style="text;strokeColor=none;fillColor=none;align=left;verticalAlign=top;spacingLeft=4;spacingRight=4;overflow=hidden;rotatable=0;points=[[0,0.5],[1,0.5]];portConstraint=eastwest;whiteSpace=wrap;html=1;fontColor=#FEFAE0;rounded=1;labelBackgroundColor=none;" parent="HC6vs06m10PFqQaXT6nF-134" vertex="1">
          <mxGeometry y="26" width="253" height="26" as="geometry" />
        </mxCell>
        <mxCell id="HC6vs06m10PFqQaXT6nF-138" value="" style="endArrow=block;dashed=1;endFill=0;endSize=12;html=1;rounded=1;strokeColor=#DDA15E;fontColor=default;fillColor=#BC6C25;labelBackgroundColor=none;" parent="1" source="HC6vs06m10PFqQaXT6nF-134" target="HC6vs06m10PFqQaXT6nF-92" edge="1">
          <mxGeometry width="160" relative="1" as="geometry">
            <mxPoint x="1757" y="152" as="sourcePoint" />
            <mxPoint x="1917" y="152" as="targetPoint" />
          </mxGeometry>
        </mxCell>
        <mxCell id="HC6vs06m10PFqQaXT6nF-140" value="" style="endArrow=diamondThin;endFill=0;endSize=24;html=1;rounded=1;strokeColor=#DDA15E;fontColor=default;fillColor=#BC6C25;labelBackgroundColor=none;" parent="1" source="HC6vs06m10PFqQaXT6nF-120" target="HC6vs06m10PFqQaXT6nF-134" edge="1">
          <mxGeometry width="160" relative="1" as="geometry">
            <mxPoint x="1920" y="249" as="sourcePoint" />
            <mxPoint x="2080" y="249" as="targetPoint" />
          </mxGeometry>
        </mxCell>
        <mxCell id="PxFXx7_cM0NpvS31mXZh-1" value="InteractingMethod" style="swimlane;fontStyle=0;childLayout=stackLayout;horizontal=1;startSize=26;fillColor=none;horizontalStack=0;resizeParent=1;resizeParentMax=0;resizeLast=0;collapsible=1;marginBottom=0;whiteSpace=wrap;html=1;rounded=1;labelBackgroundColor=none;strokeColor=#DDA15E;fontColor=#FEFAE0;" parent="1" vertex="1">
          <mxGeometry x="1511" y="536" width="140" height="104" as="geometry" />
        </mxCell>
        <mxCell id="PxFXx7_cM0NpvS31mXZh-2" value="string Name" style="text;strokeColor=none;fillColor=none;align=left;verticalAlign=top;spacingLeft=4;spacingRight=4;overflow=hidden;rotatable=0;points=[[0,0.5],[1,0.5]];portConstraint=eastwest;whiteSpace=wrap;html=1;rounded=1;labelBackgroundColor=none;fontColor=#FEFAE0;" parent="PxFXx7_cM0NpvS31mXZh-1" vertex="1">
          <mxGeometry y="26" width="140" height="26" as="geometry" />
        </mxCell>
        <mxCell id="PxFXx7_cM0NpvS31mXZh-3" value="OnInteract" style="text;strokeColor=none;fillColor=none;align=left;verticalAlign=top;spacingLeft=4;spacingRight=4;overflow=hidden;rotatable=0;points=[[0,0.5],[1,0.5]];portConstraint=eastwest;whiteSpace=wrap;html=1;rounded=1;labelBackgroundColor=none;fontColor=#FEFAE0;" parent="PxFXx7_cM0NpvS31mXZh-1" vertex="1">
          <mxGeometry y="52" width="140" height="26" as="geometry" />
        </mxCell>
        <mxCell id="PxFXx7_cM0NpvS31mXZh-23" value="bool GetIsAvailable()" style="text;strokeColor=none;fillColor=none;align=left;verticalAlign=top;spacingLeft=4;spacingRight=4;overflow=hidden;rotatable=0;points=[[0,0.5],[1,0.5]];portConstraint=eastwest;whiteSpace=wrap;html=1;rounded=1;labelBackgroundColor=none;fontColor=#FEFAE0;" parent="PxFXx7_cM0NpvS31mXZh-1" vertex="1">
          <mxGeometry y="78" width="140" height="26" as="geometry" />
        </mxCell>
        <mxCell id="PxFXx7_cM0NpvS31mXZh-10" value="" style="endArrow=diamondThin;endFill=1;endSize=24;html=1;rounded=1;strokeColor=#DDA15E;fontColor=#FEFAE0;fillColor=#BC6C25;" parent="1" source="PxFXx7_cM0NpvS31mXZh-1" target="ZEL4j_P76lbgU2SCLUvC-57" edge="1">
          <mxGeometry width="160" relative="1" as="geometry">
            <mxPoint x="1228" y="597" as="sourcePoint" />
            <mxPoint x="1388" y="597" as="targetPoint" />
          </mxGeometry>
        </mxCell>
        <mxCell id="PxFXx7_cM0NpvS31mXZh-14" value="IInteractingTool" style="swimlane;fontStyle=0;childLayout=stackLayout;horizontal=1;startSize=26;fillColor=none;horizontalStack=0;resizeParent=1;resizeParentMax=0;resizeLast=0;collapsible=1;marginBottom=0;whiteSpace=wrap;html=1;rounded=1;strokeColor=#DDA15E;fontColor=#FEFAE0;" parent="1" vertex="1">
          <mxGeometry x="941" y="1211" width="140" height="52" as="geometry" />
        </mxCell>
        <mxCell id="PxFXx7_cM0NpvS31mXZh-18" value="void Use()" style="text;strokeColor=none;fillColor=none;align=left;verticalAlign=top;spacingLeft=4;spacingRight=4;overflow=hidden;rotatable=0;points=[[0,0.5],[1,0.5]];portConstraint=eastwest;whiteSpace=wrap;html=1;rounded=1;labelBackgroundColor=none;fontColor=#FEFAE0;" parent="PxFXx7_cM0NpvS31mXZh-14" vertex="1">
          <mxGeometry y="26" width="140" height="26" as="geometry" />
        </mxCell>
        <mxCell id="PxFXx7_cM0NpvS31mXZh-19" value="" style="endArrow=block;dashed=1;endFill=0;endSize=12;html=1;rounded=1;strokeColor=#DDA15E;fontColor=#FEFAE0;fillColor=#BC6C25;" parent="1" source="PxFXx7_cM0NpvS31mXZh-14" target="UVkhXcaQdOcwH5GgiyCx-23" edge="1">
          <mxGeometry width="160" relative="1" as="geometry">
            <mxPoint x="945" y="1250" as="sourcePoint" />
            <mxPoint x="1105" y="1250" as="targetPoint" />
          </mxGeometry>
        </mxCell>
        <mxCell id="PxFXx7_cM0NpvS31mXZh-20" value="" style="endArrow=block;dashed=1;endFill=0;endSize=12;html=1;rounded=1;strokeColor=#DDA15E;fontColor=#FEFAE0;fillColor=#BC6C25;" parent="1" source="PxFXx7_cM0NpvS31mXZh-21" target="UVkhXcaQdOcwH5GgiyCx-1" edge="1">
          <mxGeometry width="160" relative="1" as="geometry">
            <mxPoint x="1108" y="1127" as="sourcePoint" />
            <mxPoint x="1284" y="1270" as="targetPoint" />
          </mxGeometry>
        </mxCell>
        <mxCell id="PxFXx7_cM0NpvS31mXZh-21" value="IEatable" style="swimlane;fontStyle=0;childLayout=stackLayout;horizontal=1;startSize=26;fillColor=none;horizontalStack=0;resizeParent=1;resizeParentMax=0;resizeLast=0;collapsible=1;marginBottom=0;whiteSpace=wrap;html=1;rounded=1;labelBackgroundColor=none;strokeColor=#DDA15E;fontColor=#FEFAE0;" parent="1" vertex="1">
          <mxGeometry x="1010" y="1104" width="140" height="52" as="geometry" />
        </mxCell>
        <mxCell id="PxFXx7_cM0NpvS31mXZh-22" value="void Eat()" style="text;strokeColor=none;fillColor=none;align=left;verticalAlign=top;spacingLeft=4;spacingRight=4;overflow=hidden;rotatable=0;points=[[0,0.5],[1,0.5]];portConstraint=eastwest;whiteSpace=wrap;html=1;rounded=1;labelBackgroundColor=none;fontColor=#FEFAE0;" parent="PxFXx7_cM0NpvS31mXZh-21" vertex="1">
          <mxGeometry y="26" width="140" height="26" as="geometry" />
        </mxCell>
        <mxCell id="PxFXx7_cM0NpvS31mXZh-24" value="PlayerEffectsManager" style="swimlane;fontStyle=0;childLayout=stackLayout;horizontal=1;startSize=26;fillColor=none;horizontalStack=0;resizeParent=1;resizeParentMax=0;resizeLast=0;collapsible=1;marginBottom=0;whiteSpace=wrap;html=1;rounded=1;strokeColor=#DDA15E;fontColor=#FEFAE0;" parent="1" vertex="1">
          <mxGeometry x="972" y="-233" width="216" height="130" as="geometry" />
        </mxCell>
        <mxCell id="PxFXx7_cM0NpvS31mXZh-27" value="Effect[] GetEffects()" style="text;strokeColor=none;fillColor=none;align=left;verticalAlign=top;spacingLeft=4;spacingRight=4;overflow=hidden;rotatable=0;points=[[0,0.5],[1,0.5]];portConstraint=eastwest;whiteSpace=wrap;html=1;fontColor=#FEFAE0;" parent="PxFXx7_cM0NpvS31mXZh-24" vertex="1">
          <mxGeometry y="26" width="216" height="26" as="geometry" />
        </mxCell>
        <mxCell id="PxFXx7_cM0NpvS31mXZh-48" value="void AddEffect(Effect effect)" style="text;strokeColor=none;fillColor=none;align=left;verticalAlign=top;spacingLeft=4;spacingRight=4;overflow=hidden;rotatable=0;points=[[0,0.5],[1,0.5]];portConstraint=eastwest;whiteSpace=wrap;html=1;fontColor=#FEFAE0;" parent="PxFXx7_cM0NpvS31mXZh-24" vertex="1">
          <mxGeometry y="52" width="216" height="26" as="geometry" />
        </mxCell>
        <mxCell id="PxFXx7_cM0NpvS31mXZh-49" value="void ClearEffect(stirng Id)" style="text;strokeColor=none;fillColor=none;align=left;verticalAlign=top;spacingLeft=4;spacingRight=4;overflow=hidden;rotatable=0;points=[[0,0.5],[1,0.5]];portConstraint=eastwest;whiteSpace=wrap;html=1;fontColor=#FEFAE0;" parent="PxFXx7_cM0NpvS31mXZh-24" vertex="1">
          <mxGeometry y="78" width="216" height="26" as="geometry" />
        </mxCell>
        <mxCell id="PxFXx7_cM0NpvS31mXZh-51" value="Dictionary&amp;lt;string, float&amp;gt; Buffs" style="text;strokeColor=none;fillColor=none;align=left;verticalAlign=top;spacingLeft=4;spacingRight=4;overflow=hidden;rotatable=0;points=[[0,0.5],[1,0.5]];portConstraint=eastwest;whiteSpace=wrap;html=1;fontColor=#FEFAE0;" parent="PxFXx7_cM0NpvS31mXZh-24" vertex="1">
          <mxGeometry y="104" width="216" height="26" as="geometry" />
        </mxCell>
        <mxCell id="PxFXx7_cM0NpvS31mXZh-28" value="TimeEffect" style="swimlane;fontStyle=0;childLayout=stackLayout;horizontal=1;startSize=26;fillColor=none;horizontalStack=0;resizeParent=1;resizeParentMax=0;resizeLast=0;collapsible=1;marginBottom=0;whiteSpace=wrap;html=1;rounded=1;strokeColor=#DDA15E;fontColor=#FEFAE0;" parent="1" vertex="1">
          <mxGeometry x="721.5" y="-357" width="140" height="52" as="geometry" />
        </mxCell>
        <mxCell id="PxFXx7_cM0NpvS31mXZh-31" value="float Time" style="text;strokeColor=none;fillColor=none;align=left;verticalAlign=top;spacingLeft=4;spacingRight=4;overflow=hidden;rotatable=0;points=[[0,0.5],[1,0.5]];portConstraint=eastwest;whiteSpace=wrap;html=1;fontColor=#FEFAE0;" parent="PxFXx7_cM0NpvS31mXZh-28" vertex="1">
          <mxGeometry y="26" width="140" height="26" as="geometry" />
        </mxCell>
        <mxCell id="PxFXx7_cM0NpvS31mXZh-32" value="ConstantEffect" style="swimlane;fontStyle=0;childLayout=stackLayout;horizontal=1;startSize=26;fillColor=none;horizontalStack=0;resizeParent=1;resizeParentMax=0;resizeLast=0;collapsible=1;marginBottom=0;whiteSpace=wrap;html=1;rounded=1;strokeColor=#DDA15E;fontColor=#FEFAE0;" parent="1" vertex="1">
          <mxGeometry x="720" y="-467" width="140" height="52" as="geometry" />
        </mxCell>
        <mxCell id="PxFXx7_cM0NpvS31mXZh-33" value="-" style="text;strokeColor=none;fillColor=none;align=left;verticalAlign=top;spacingLeft=4;spacingRight=4;overflow=hidden;rotatable=0;points=[[0,0.5],[1,0.5]];portConstraint=eastwest;whiteSpace=wrap;html=1;fontColor=#FEFAE0;" parent="PxFXx7_cM0NpvS31mXZh-32" vertex="1">
          <mxGeometry y="26" width="140" height="26" as="geometry" />
        </mxCell>
        <mxCell id="PxFXx7_cM0NpvS31mXZh-36" value="Effect" style="swimlane;fontStyle=0;childLayout=stackLayout;horizontal=1;startSize=26;fillColor=none;horizontalStack=0;resizeParent=1;resizeParentMax=0;resizeLast=0;collapsible=1;marginBottom=0;whiteSpace=wrap;html=1;rounded=1;strokeColor=#DDA15E;fontColor=#FEFAE0;" parent="1" vertex="1">
          <mxGeometry x="960" y="-490" width="232" height="182" as="geometry" />
        </mxCell>
        <mxCell id="PxFXx7_cM0NpvS31mXZh-38" value="void Add(Effect other)" style="text;strokeColor=none;fillColor=none;align=left;verticalAlign=top;spacingLeft=4;spacingRight=4;overflow=hidden;rotatable=0;points=[[0,0.5],[1,0.5]];portConstraint=eastwest;whiteSpace=wrap;html=1;fontColor=#FEFAE0;" parent="PxFXx7_cM0NpvS31mXZh-36" vertex="1">
          <mxGeometry y="26" width="232" height="26" as="geometry" />
        </mxCell>
        <mxCell id="PxFXx7_cM0NpvS31mXZh-43" value="string Id" style="text;strokeColor=none;fillColor=none;align=left;verticalAlign=top;spacingLeft=4;spacingRight=4;overflow=hidden;rotatable=0;points=[[0,0.5],[1,0.5]];portConstraint=eastwest;whiteSpace=wrap;html=1;fontColor=#FEFAE0;" parent="PxFXx7_cM0NpvS31mXZh-36" vertex="1">
          <mxGeometry y="52" width="232" height="26" as="geometry" />
        </mxCell>
        <mxCell id="PxFXx7_cM0NpvS31mXZh-46" value="int Level" style="text;strokeColor=none;fillColor=none;align=left;verticalAlign=top;spacingLeft=4;spacingRight=4;overflow=hidden;rotatable=0;points=[[0,0.5],[1,0.5]];portConstraint=eastwest;whiteSpace=wrap;html=1;fontColor=#FEFAE0;" parent="PxFXx7_cM0NpvS31mXZh-36" vertex="1">
          <mxGeometry y="78" width="232" height="26" as="geometry" />
        </mxCell>
        <mxCell id="PxFXx7_cM0NpvS31mXZh-62" value="int MaxLevel" style="text;strokeColor=none;fillColor=none;align=left;verticalAlign=top;spacingLeft=4;spacingRight=4;overflow=hidden;rotatable=0;points=[[0,0.5],[1,0.5]];portConstraint=eastwest;whiteSpace=wrap;html=1;fontColor=#FEFAE0;" parent="PxFXx7_cM0NpvS31mXZh-36" vertex="1">
          <mxGeometry y="104" width="232" height="26" as="geometry" />
        </mxCell>
        <mxCell id="PxFXx7_cM0NpvS31mXZh-44" value="string Name" style="text;strokeColor=none;fillColor=none;align=left;verticalAlign=top;spacingLeft=4;spacingRight=4;overflow=hidden;rotatable=0;points=[[0,0.5],[1,0.5]];portConstraint=eastwest;whiteSpace=wrap;html=1;fontColor=#FEFAE0;" parent="PxFXx7_cM0NpvS31mXZh-36" vertex="1">
          <mxGeometry y="130" width="232" height="26" as="geometry" />
        </mxCell>
        <mxCell id="PxFXx7_cM0NpvS31mXZh-50" value="Dictionary&amp;lt;string, float&amp;gt; Buffs" style="text;strokeColor=none;fillColor=none;align=left;verticalAlign=top;spacingLeft=4;spacingRight=4;overflow=hidden;rotatable=0;points=[[0,0.5],[1,0.5]];portConstraint=eastwest;whiteSpace=wrap;html=1;fontColor=#FEFAE0;" parent="PxFXx7_cM0NpvS31mXZh-36" vertex="1">
          <mxGeometry y="156" width="232" height="26" as="geometry" />
        </mxCell>
        <mxCell id="PxFXx7_cM0NpvS31mXZh-40" value="" style="endArrow=diamondThin;endFill=1;endSize=24;html=1;rounded=1;strokeColor=#DDA15E;fontColor=#FEFAE0;fillColor=#BC6C25;" parent="1" source="PxFXx7_cM0NpvS31mXZh-36" target="PxFXx7_cM0NpvS31mXZh-24" edge="1">
          <mxGeometry width="160" relative="1" as="geometry">
            <mxPoint x="819" y="-258" as="sourcePoint" />
            <mxPoint x="979" y="-258" as="targetPoint" />
          </mxGeometry>
        </mxCell>
        <mxCell id="PxFXx7_cM0NpvS31mXZh-41" value="Extends" style="endArrow=block;endSize=16;endFill=0;html=1;rounded=1;strokeColor=#DDA15E;fontColor=#FEFAE0;fillColor=#BC6C25;" parent="1" source="PxFXx7_cM0NpvS31mXZh-28" target="PxFXx7_cM0NpvS31mXZh-36" edge="1">
          <mxGeometry width="160" relative="1" as="geometry">
            <mxPoint x="793" y="-250" as="sourcePoint" />
            <mxPoint x="953" y="-250" as="targetPoint" />
          </mxGeometry>
        </mxCell>
        <mxCell id="PxFXx7_cM0NpvS31mXZh-42" value="Extends" style="endArrow=block;endSize=16;endFill=0;html=1;rounded=1;strokeColor=#DDA15E;fontColor=#FEFAE0;fillColor=#BC6C25;" parent="1" source="PxFXx7_cM0NpvS31mXZh-32" target="PxFXx7_cM0NpvS31mXZh-36" edge="1">
          <mxGeometry width="160" relative="1" as="geometry">
            <mxPoint x="873" y="-344" as="sourcePoint" />
            <mxPoint x="951" y="-343" as="targetPoint" />
          </mxGeometry>
        </mxCell>
        <mxCell id="PxFXx7_cM0NpvS31mXZh-45" value="" style="endArrow=diamondThin;endFill=0;endSize=24;html=1;rounded=1;strokeColor=#DDA15E;fontColor=#FEFAE0;fillColor=#BC6C25;" parent="1" source="PxFXx7_cM0NpvS31mXZh-24" target="8EAAMGY7SLUVXrKPHWDD-31" edge="1">
          <mxGeometry width="160" relative="1" as="geometry">
            <mxPoint x="964" y="-105" as="sourcePoint" />
            <mxPoint x="1124" y="-105" as="targetPoint" />
          </mxGeometry>
        </mxCell>
        <mxCell id="PxFXx7_cM0NpvS31mXZh-52" value="EffectIds" style="swimlane;fontStyle=0;childLayout=stackLayout;horizontal=1;startSize=26;fillColor=none;horizontalStack=0;resizeParent=1;resizeParentMax=0;resizeLast=0;collapsible=1;marginBottom=0;whiteSpace=wrap;html=1;rounded=1;strokeColor=#DDA15E;fontColor=#FEFAE0;" parent="1" vertex="1">
          <mxGeometry x="1585" y="-467" width="140" height="52" as="geometry" />
        </mxCell>
        <mxCell id="PxFXx7_cM0NpvS31mXZh-53" value="...string *effectId*..." style="text;strokeColor=none;fillColor=none;align=left;verticalAlign=top;spacingLeft=4;spacingRight=4;overflow=hidden;rotatable=0;points=[[0,0.5],[1,0.5]];portConstraint=eastwest;whiteSpace=wrap;html=1;fontColor=#FEFAE0;" parent="PxFXx7_cM0NpvS31mXZh-52" vertex="1">
          <mxGeometry y="26" width="140" height="26" as="geometry" />
        </mxCell>
        <mxCell id="PxFXx7_cM0NpvS31mXZh-56" value="BuffNames" style="swimlane;fontStyle=0;childLayout=stackLayout;horizontal=1;startSize=26;fillColor=none;horizontalStack=0;resizeParent=1;resizeParentMax=0;resizeLast=0;collapsible=1;marginBottom=0;whiteSpace=wrap;html=1;rounded=1;strokeColor=#DDA15E;fontColor=#FEFAE0;" parent="1" vertex="1">
          <mxGeometry x="1585" y="-379" width="140" height="52" as="geometry" />
        </mxCell>
        <mxCell id="PxFXx7_cM0NpvS31mXZh-57" value="...string *buffName*..." style="text;strokeColor=none;fillColor=none;align=left;verticalAlign=top;spacingLeft=4;spacingRight=4;overflow=hidden;rotatable=0;points=[[0,0.5],[1,0.5]];portConstraint=eastwest;whiteSpace=wrap;html=1;fontColor=#FEFAE0;" parent="PxFXx7_cM0NpvS31mXZh-56" vertex="1">
          <mxGeometry y="26" width="140" height="26" as="geometry" />
        </mxCell>
        <mxCell id="PxFXx7_cM0NpvS31mXZh-64" value="EffectsManager" style="swimlane;fontStyle=0;childLayout=stackLayout;horizontal=1;startSize=26;fillColor=none;horizontalStack=0;resizeParent=1;resizeParentMax=0;resizeLast=0;collapsible=1;marginBottom=0;whiteSpace=wrap;html=1;rounded=1;strokeColor=#DDA15E;fontColor=#FEFAE0;" parent="1" vertex="1">
          <mxGeometry x="1264" y="-434" width="244" height="52" as="geometry" />
        </mxCell>
        <mxCell id="PxFXx7_cM0NpvS31mXZh-66" value="Effect GetById(string id, int level)" style="text;strokeColor=none;fillColor=none;align=left;verticalAlign=top;spacingLeft=4;spacingRight=4;overflow=hidden;rotatable=0;points=[[0,0.5],[1,0.5]];portConstraint=eastwest;whiteSpace=wrap;html=1;fontColor=#FEFAE0;" parent="PxFXx7_cM0NpvS31mXZh-64" vertex="1">
          <mxGeometry y="26" width="244" height="26" as="geometry" />
        </mxCell>
        <mxCell id="PxFXx7_cM0NpvS31mXZh-68" value="Use" style="endArrow=open;endSize=12;dashed=1;html=1;rounded=1;labelBackgroundColor=none;fontColor=default;strokeColor=#DDA15E;" parent="1" target="PxFXx7_cM0NpvS31mXZh-52" edge="1">
          <mxGeometry width="160" relative="1" as="geometry">
            <mxPoint x="1807" y="-439" as="sourcePoint" />
            <mxPoint x="1788" y="-675" as="targetPoint" />
          </mxGeometry>
        </mxCell>
        <mxCell id="PxFXx7_cM0NpvS31mXZh-69" value="Use" style="endArrow=open;endSize=12;dashed=1;html=1;rounded=1;labelBackgroundColor=none;fontColor=default;strokeColor=#DDA15E;" parent="1" target="PxFXx7_cM0NpvS31mXZh-56" edge="1">
          <mxGeometry width="160" relative="1" as="geometry">
            <mxPoint x="1808" y="-353" as="sourcePoint" />
            <mxPoint x="1735" y="-430" as="targetPoint" />
          </mxGeometry>
        </mxCell>
        <mxCell id="PxFXx7_cM0NpvS31mXZh-71" value="" style="endArrow=diamondThin;endFill=0;endSize=24;html=1;rounded=1;strokeColor=#DDA15E;fontColor=#FEFAE0;fillColor=#BC6C25;" parent="1" source="PxFXx7_cM0NpvS31mXZh-36" target="PxFXx7_cM0NpvS31mXZh-64" edge="1">
          <mxGeometry width="160" relative="1" as="geometry">
            <mxPoint x="1226" y="-279" as="sourcePoint" />
            <mxPoint x="1386" y="-279" as="targetPoint" />
          </mxGeometry>
        </mxCell>
        <mxCell id="PxFXx7_cM0NpvS31mXZh-72" value="ItemIds" style="swimlane;fontStyle=0;childLayout=stackLayout;horizontal=1;startSize=26;fillColor=none;horizontalStack=0;resizeParent=1;resizeParentMax=0;resizeLast=0;collapsible=1;marginBottom=0;whiteSpace=wrap;html=1;rounded=1;strokeColor=#DDA15E;fontColor=#FEFAE0;" parent="1" vertex="1">
          <mxGeometry x="1368" y="942" width="140" height="52" as="geometry" />
        </mxCell>
        <mxCell id="PxFXx7_cM0NpvS31mXZh-75" value="...string *itemId*..." style="text;strokeColor=none;fillColor=none;align=left;verticalAlign=top;spacingLeft=4;spacingRight=4;overflow=hidden;rotatable=0;points=[[0,0.5],[1,0.5]];portConstraint=eastwest;whiteSpace=wrap;html=1;fontColor=#FEFAE0;" parent="PxFXx7_cM0NpvS31mXZh-72" vertex="1">
          <mxGeometry y="26" width="140" height="26" as="geometry" />
        </mxCell>
        <mxCell id="PxFXx7_cM0NpvS31mXZh-76" value="Use" style="endArrow=open;endSize=12;dashed=1;html=1;rounded=1;labelBackgroundColor=none;fontColor=default;strokeColor=#DDA15E;" parent="1" target="PxFXx7_cM0NpvS31mXZh-72" edge="1">
          <mxGeometry width="160" relative="1" as="geometry">
            <mxPoint x="1438" y="1059" as="sourcePoint" />
            <mxPoint x="1570" y="747" as="targetPoint" />
          </mxGeometry>
        </mxCell>
        <mxCell id="PxFXx7_cM0NpvS31mXZh-77" value="PlayerAnimations" style="swimlane;fontStyle=0;childLayout=stackLayout;horizontal=1;startSize=26;fillColor=none;horizontalStack=0;resizeParent=1;resizeParentMax=0;resizeLast=0;collapsible=1;marginBottom=0;whiteSpace=wrap;html=1;rounded=1;strokeColor=#DDA15E;fontColor=#FEFAE0;" parent="1" vertex="1">
          <mxGeometry x="1648" y="-249" width="253" height="52" as="geometry" />
        </mxCell>
        <mxCell id="PxFXx7_cM0NpvS31mXZh-78" value="...string *animationName*..." style="text;strokeColor=none;fillColor=none;align=left;verticalAlign=top;spacingLeft=4;spacingRight=4;overflow=hidden;rotatable=0;points=[[0,0.5],[1,0.5]];portConstraint=eastwest;whiteSpace=wrap;html=1;fontColor=#FEFAE0;" parent="PxFXx7_cM0NpvS31mXZh-77" vertex="1">
          <mxGeometry y="26" width="253" height="26" as="geometry" />
        </mxCell>
        <mxCell id="PxFXx7_cM0NpvS31mXZh-84" value="Use" style="endArrow=open;endSize=12;dashed=1;html=1;rounded=1;strokeColor=#DDA15E;fontColor=#FEFAE0;fillColor=#BC6C25;" parent="1" target="PxFXx7_cM0NpvS31mXZh-77" edge="1">
          <mxGeometry width="160" relative="1" as="geometry">
            <mxPoint x="2021" y="-225" as="sourcePoint" />
            <mxPoint x="2196" y="-162" as="targetPoint" />
          </mxGeometry>
        </mxCell>
      </root>
    </mxGraphModel>
  </diagram>
</mxfile>
